<?xml version="1.0" encoding="UTF-8" standalone="no"?>
<!DOCTYPE svg  PUBLIC '-//W3C//DTD SVG 1.1//EN'  'http://www.w3.org/Graphics/SVG/1.1/DTD/svg11.dtd'>
<svg xmlns="http://www.w3.org/2000/svg" xmlns:xlink="http://www.w3.org/1999/xlink" version="1.1">
 <metadata>Created by FontForge 20150612 at Fri Jul  8 22:24:53 2016
 By Etienne
Copyright \(c\)2015, HK Grotesk designed by Alfredo Marco Pradil \(ammpradil@gmail.com\). HK Grotesk is a trademark of Alfredo Marco Pradil.</metadata>
 <defs>
  <font id="HKGrotesk-Italic" horiz-adv-x="636">
   <font-face slope="-10" underline-position="-100" font-weight="400" descent="-300" panose-1="0 0 5 0 0 0 0 0 0 0" stemh="60" units-per-em="1000" unicode-range="U+0020-FB02" stemv="80" bbox="-326 -250 1118 1097" x-height="488" underline-thickness="40" font-family="HK Grotesk Italic" ascent="700" font-style="italic" cap-height="690"/>
   <missing-glyph d="M50 0v466h400v-466h-400zM100 50h300v366h-300v-366z" horiz-adv-x="500"/>
   <glyph glyph-name="f_f_i" horiz-adv-x="764" unicode="ffi" d="M40 0l74 420h-71l12 68h72l10 58c17 97 100 154 192 154c52 0 100 -19 133 -54c40 36 97 54 146 54c50 0 100 -20 147 -59l-50 -55s-29 46 -99 46c-63 0 -113 -38 -123 -94l-9 -50h260l-86 -488h-73l74 420h-187l-74 -420h-77l74 420h-194l-74 -420h-77zM203 488h195 l10 58c3 15 7 33 13 48c-9 10 -35 38 -91 38c-64 0 -108 -38 -118 -94z"/>
   <glyph glyph-name="f_f_l" horiz-adv-x="765" unicode="ffl" d="M645 -10c-57 0 -70 38 -62 82l94 528c-9 17 -35 32 -73 32c-59 0 -108 -38 -118 -94l-9 -50h81l-12 -68h-81l-74 -420h-77l74 420h-201l-74 -420h-77l74 420h-71l12 68h72l10 58c17 97 99 154 194 154c69 0 111 -30 137 -54c39 35 84 54 148 54c70 0 105 -24 142 -69 l-94 -541c-4 -20 -4 -26 15 -26c18 0 36 6 36 6l-9 -67s-33 -13 -57 -13zM199 488l203 3c7 41 13 76 21 98c-12 14 -38 43 -93 43c-63 0 -112 -38 -122 -94z"/>
   <glyph glyph-name="fi" horiz-adv-x="487" unicode="fi" d="M40 0l74 420h-71l12 68l73 3c19 112 80 209 210 209c53 0 109 -17 139 -59l-48 -55c-26 34 -53 46 -90 46c-87 0 -123 -69 -136 -147l253 3l-86 -488h-73l74 420h-180l-74 -420h-77z"/>
   <glyph glyph-name="fl" horiz-adv-x="494" unicode="fl" d="M372 -10c-56 0 -68 49 -57 112l90 502c-10 14 -34 28 -72 28c-71 0 -109 -26 -120 -88l-10 -56h101l-12 -68h-101l-74 -420h-77l74 420h-71l12 68h72l12 68c17 97 96 144 195 144c45 0 95 -14 146 -70l-93 -540c-3 -19 -2 -26 17 -26c15 0 35 6 35 6l-9 -67 s-32 -13 -58 -13z"/>
   <glyph glyph-name="arrowright" horiz-adv-x="1069" unicode="-&gt;" d="M574 63l-35 60l299 157h-787v60h794l-306 157l35 60l444 -245z"/>
   <glyph glyph-name="arrowleft" horiz-adv-x="1069" unicode="&lt;-" d="M495 63l-444 249l444 245l35 -60l-306 -157h794v-60h-787l299 -157z"/>
   <glyph glyph-name=".notdef" d="M50 0v466h400v-466h-400zM100 50h300v366h-300v-366z" horiz-adv-x="500"/>
   <glyph glyph-name="A" d="M-26 0l383 690h65l138 -690h-89l-28 150h-296l-79 -150h-94zM189 226h241l-60 340z" unicode="A"/>
   <glyph glyph-name="Aacute" d="M355 751l130 141h92l-158 -141h-64zM-26 0l383 690h65l138 -690h-89l-28 150h-296l-79 -150h-94zM189 226h241l-60 340z" unicode="Á"/>
   <glyph glyph-name="Abreve" d="M406 760c-87 0 -144 49 -129 135l63 -6c-8 -46 23 -75 68 -75c49 0 95 34 103 81l63 -6c-15 -85 -85 -129 -168 -129zM-26 0l383 690h65l138 -690h-89l-28 150h-296l-79 -150h-94zM189 226h241l-60 340z" unicode="Ă"/>
   <glyph glyph-name="uni1EAE" d="M391 953l130 141h92l-158 -141h-64zM406 760c-87 0 -144 49 -129 135l63 -6c-8 -46 23 -75 68 -75c49 0 95 34 103 81l63 -6c-15 -85 -85 -129 -168 -129zM-26 0l383 690h65l138 -690h-89l-28 150h-296l-79 -150h-94zM189 226h241l-60 340z" unicode="Ắ"/>
   <glyph glyph-name="uni1EB0" d="M403 953l-98 141h88l80 -141h-70zM406 760c-87 0 -144 49 -129 135l63 -6c-8 -46 23 -75 68 -75c49 0 95 34 103 81l63 -6c-15 -85 -85 -129 -168 -129zM-26 0l383 690h65l138 -690h-89l-28 150h-296l-79 -150h-94zM189 226h241l-60 340z" unicode="Ằ"/>
   <glyph glyph-name="uni1EB4" d="M519 967c-83 0 -96 77 -149 77c-37 0 -55 -34 -60 -70l-52 6c12 70 50 117 112 117c98 0 101 -79 153 -79c39 0 57 33 65 79l56 -6c-14 -83 -58 -124 -125 -124zM406 760c-87 0 -144 49 -129 135l63 -6c-8 -46 23 -75 68 -75c49 0 95 34 103 81l63 -6 c-15 -85 -85 -129 -168 -129zM-26 0l383 690h65l138 -690h-89l-28 150h-296l-79 -150h-94zM189 226h241l-60 340z" unicode="Ẵ"/>
   <glyph glyph-name="uni01CD" d="M398 730l-132 162h75l66 -92l103 92h79zM-26 0l383 690h65l138 -690h-89l-28 150h-296l-79 -150h-94zM189 226h241l-60 340z" unicode="Ǎ"/>
   <glyph glyph-name="Acircumflex" d="M237 738l190 174l133 -174h-75l-68 94l-101 -94h-79zM-26 0l383 690h65l138 -690h-89l-28 150h-296l-79 -150h-94zM189 226h241l-60 340z" unicode="Â"/>
   <glyph glyph-name="uni1EA4" d="M391 953l130 141h92l-158 -141h-64zM237 738l190 174l133 -174h-75l-68 94l-101 -94h-79zM-26 0l383 690h65l138 -690h-89l-28 150h-296l-79 -150h-94zM189 226h241l-60 340z" unicode="Ấ"/>
   <glyph glyph-name="uni1EA6" d="M403 953l-98 141h88l80 -141h-70zM237 738l190 174l133 -174h-75l-68 94l-101 -94h-79zM-26 0l383 690h65l138 -690h-89l-28 150h-296l-79 -150h-94zM189 226h241l-60 340z" unicode="Ầ"/>
   <glyph glyph-name="uni1EAA" d="M519 967c-83 0 -96 77 -149 77c-37 0 -55 -34 -60 -70l-52 6c12 70 50 117 112 117c98 0 101 -79 153 -79c39 0 57 33 65 79l56 -6c-14 -83 -58 -124 -125 -124zM237 738l190 174l133 -174h-75l-68 94l-101 -94h-79zM-26 0l383 690h65l138 -690h-89l-28 150h-296 l-79 -150h-94zM189 226h241l-60 340z" unicode="Ẫ"/>
   <glyph glyph-name="Adieresis" d="M284 778l14 84h80l-14 -84h-80zM447 778l14 84h80l-14 -84h-80zM-26 0l383 690h65l138 -690h-89l-28 150h-296l-79 -150h-94zM189 226h241l-60 340z" unicode="Ä"/>
   <glyph glyph-name="Agrave" d="M367 751l-98 141h88l80 -141h-70zM-26 0l383 690h65l138 -690h-89l-28 150h-296l-79 -150h-94zM189 226h241l-60 340z" unicode="À"/>
   <glyph glyph-name="Amacron" d="M275 782l11 60h263l-11 -60h-263zM-26 0l383 690h65l138 -690h-89l-28 150h-296l-79 -150h-94zM189 226h241l-60 340z" unicode="Ā"/>
   <glyph glyph-name="Aogonek" d="M525 -133l41 -34c-28 -33 -60 -53 -107 -53c-59 0 -95 42 -84 106c12 69 88 102 129 114h-33l-28 150h-296l-79 -150h-94l383 690h65l138 -690s-121 -41 -135 -119c-5 -31 10 -48 31 -48c30 0 51 13 69 34zM189 226h241l-60 340z" unicode="Ą"/>
   <glyph glyph-name="Aring" d="M422 688l138 -688h-89l-28 150h-296l-79 -150h-94l358 645c-55 2 -90 48 -80 104c9 51 57 91 109 91c55 0 94 -45 84 -103c-3 -18 -11 -35 -23 -49zM299 737c-4 -26 12 -43 37 -43c29 0 57 24 62 55c4 24 -10 42 -37 42c-31 0 -56 -22 -62 -54zM189 226h241l-60 340z" unicode="Å"/>
   <glyph glyph-name="Atilde" d="M483 765c-83 0 -96 77 -149 77c-37 0 -55 -34 -60 -70l-52 6c12 70 50 117 112 117c98 0 101 -79 153 -79c39 0 57 33 65 79l56 -6c-14 -83 -58 -124 -125 -124zM-26 0l383 690h65l138 -690h-89l-28 150h-296l-79 -150h-94zM189 226h241l-60 340z" unicode="Ã"/>
   <glyph glyph-name="AE" horiz-adv-x="882" unicode="Æ" d="M-39 0l383 690h555l-13 -74h-365l-42 -234h322l-13 -74h-322l-40 -231h365l-14 -77h-449l26 150h-219l-80 -150h-94zM177 226h191l69 390h-47z"/>
   <glyph glyph-name="B" horiz-adv-x="595" unicode="B" d="M47 0l122 690h196c109 0 211 -67 189 -190c-10 -58 -52 -105 -111 -139c63 -26 104 -96 90 -176c-21 -117 -141 -185 -251 -185h-235zM199 391h115c72 0 142 34 156 112c12 71 -41 111 -113 111h-119zM144 78h150c72 0 144 49 158 126c13 72 -40 111 -112 111h-154z"/>
   <glyph glyph-name="C" horiz-adv-x="705" unicode="C" d="M328 -10c-216 0 -289 165 -254 361c33 190 159 350 371 350c131 0 221 -67 252 -189l-80 -26c-11 101 -86 137 -179 137c-163 0 -256 -131 -282 -279c-27 -150 17 -276 178 -276c97 0 177 43 233 144l74 -38c-74 -122 -186 -184 -313 -184z"/>
   <glyph glyph-name="Cacute" horiz-adv-x="705" unicode="Ć" d="M390 751l130 141h92l-158 -141h-64zM328 -10c-216 0 -289 165 -254 361c33 190 159 350 371 350c131 0 221 -67 252 -189l-80 -26c-11 101 -86 137 -179 137c-163 0 -256 -131 -282 -279c-27 -150 17 -276 178 -276c97 0 177 43 233 144l74 -38 c-74 -122 -186 -184 -313 -184z"/>
   <glyph glyph-name="Ccaron" horiz-adv-x="705" unicode="Č" d="M433 730l-132 162h75l66 -92l103 92h79zM328 -10c-216 0 -289 165 -254 361c33 190 159 350 371 350c131 0 221 -67 252 -189l-80 -26c-11 101 -86 137 -179 137c-163 0 -256 -131 -282 -279c-27 -150 17 -276 178 -276c97 0 177 43 233 144l74 -38 c-74 -122 -186 -184 -313 -184z"/>
   <glyph glyph-name="Ccedilla" horiz-adv-x="705" unicode="Ç" d="M334 68c97 0 177 43 233 144l74 -38c-67 -110 -164 -171 -276 -182l-49 -56c59 -17 86 -45 78 -88c-9 -53 -60 -92 -107 -92c-45 0 -74 30 -81 64l48 18c1 -17 13 -31 33 -31c24 0 52 21 57 49c3 19 -12 30 -35 38l-59 18l56 79c-199 10 -266 171 -232 360 c33 190 159 350 371 350c131 0 221 -67 252 -189l-80 -26c-11 101 -86 137 -179 137c-163 0 -256 -131 -282 -279c-27 -150 17 -276 178 -276z"/>
   <glyph glyph-name="Cdotaccent" horiz-adv-x="705" unicode="Ċ" d="M443 777c-37 0 -60 31 -53 69c5 32 34 56 67 56c37 0 62 -30 55 -68c-5 -32 -36 -57 -69 -57zM328 -10c-216 0 -289 165 -254 361c33 190 159 350 371 350c131 0 221 -67 252 -189l-80 -26c-11 101 -86 137 -179 137c-163 0 -256 -131 -282 -279 c-27 -150 17 -276 178 -276c97 0 177 43 233 144l74 -38c-74 -122 -186 -184 -313 -184z"/>
   <glyph glyph-name="D" horiz-adv-x="681" unicode="D" d="M40 0l122 690h178c225 0 328 -126 288 -356c-39 -215 -184 -334 -407 -334h-181zM138 77h81c159 0 293 83 327 274c30 173 -38 263 -218 263h-96z"/>
   <glyph glyph-name="Eth" horiz-adv-x="681" unicode="Ð" d="M40 0l56 318h-55l11 60h55l55 312h178c225 0 328 -126 288 -356c-39 -215 -184 -334 -407 -334h-181zM138 77h81c159 0 293 83 327 274c30 173 -38 263 -218 263h-96l-41 -236h206l-11 -60h-206z"/>
   <glyph glyph-name="Dcaron" horiz-adv-x="681" unicode="Ď" d="M421 730l-132 162h75l66 -92l103 92h79zM40 0l122 690h178c225 0 328 -126 288 -356c-39 -215 -184 -334 -407 -334h-181zM138 77h81c159 0 293 83 327 274c30 173 -38 263 -218 263h-96z"/>
   <glyph glyph-name="Dcroat" horiz-adv-x="681" unicode="Đ" d="M40 0l56 318h-55l11 60h55l55 312h178c225 0 328 -126 288 -356c-39 -215 -184 -334 -407 -334h-181zM138 77h81c159 0 293 83 327 274c30 173 -38 263 -218 263h-96l-41 -236h206l-11 -60h-206z"/>
   <glyph glyph-name="E" horiz-adv-x="609" unicode="E" d="M45 0l122 690h449l-13 -74h-365l-42 -234h322l-13 -74h-322l-40 -231h365l-14 -77h-449z"/>
   <glyph glyph-name="Eacute" horiz-adv-x="609" unicode="É" d="M342 751l130 141h92l-158 -141h-64zM45 0l122 690h449l-13 -74h-365l-42 -234h322l-13 -74h-322l-40 -231h365l-14 -77h-449z"/>
   <glyph glyph-name="Ecaron" horiz-adv-x="609" unicode="Ě" d="M385 730l-132 162h75l66 -92l103 92h79zM45 0l122 690h449l-13 -74h-365l-42 -234h322l-13 -74h-322l-40 -231h365l-14 -77h-449z"/>
   <glyph glyph-name="Ecircumflex" horiz-adv-x="609" unicode="Ê" d="M224 738l190 174l133 -174h-75l-68 94l-101 -94h-79zM45 0l122 690h449l-13 -74h-365l-42 -234h322l-13 -74h-322l-40 -231h365l-14 -77h-449z"/>
   <glyph glyph-name="uni1EBE" horiz-adv-x="609" unicode="Ế" d="M378 953l130 141h92l-158 -141h-64zM224 738l190 174l133 -174h-75l-68 94l-101 -94h-79zM45 0l122 690h449l-13 -74h-365l-42 -234h322l-13 -74h-322l-40 -231h365l-14 -77h-449z"/>
   <glyph glyph-name="uni1EC0" horiz-adv-x="609" unicode="Ề" d="M390 953l-98 141h88l80 -141h-70zM224 738l190 174l133 -174h-75l-68 94l-101 -94h-79zM45 0l122 690h449l-13 -74h-365l-42 -234h322l-13 -74h-322l-40 -231h365l-14 -77h-449z"/>
   <glyph glyph-name="uni1EC4" horiz-adv-x="609" unicode="Ễ" d="M506 967c-83 0 -96 77 -149 77c-37 0 -55 -34 -60 -70l-52 6c12 70 50 117 112 117c98 0 101 -79 153 -79c39 0 57 33 65 79l56 -6c-14 -83 -58 -124 -125 -124zM224 738l190 174l133 -174h-75l-68 94l-101 -94h-79zM45 0l122 690h449l-13 -74h-365l-42 -234h322l-13 -74 h-322l-40 -231h365l-14 -77h-449z"/>
   <glyph glyph-name="Edieresis" horiz-adv-x="609" unicode="Ë" d="M271 778l14 84h80l-14 -84h-80zM434 778l14 84h80l-14 -84h-80zM45 0l122 690h449l-13 -74h-365l-42 -234h322l-13 -74h-322l-40 -231h365l-14 -77h-449z"/>
   <glyph glyph-name="Edotaccent" horiz-adv-x="609" unicode="Ė" d="M395 777c-37 0 -60 31 -53 69c5 32 34 56 67 56c37 0 62 -30 55 -68c-5 -32 -36 -57 -69 -57zM45 0l122 690h449l-13 -74h-365l-42 -234h322l-13 -74h-322l-40 -231h365l-14 -77h-449z"/>
   <glyph glyph-name="Egrave" horiz-adv-x="609" unicode="È" d="M354 751l-98 141h88l80 -141h-70zM45 0l122 690h449l-13 -74h-365l-42 -234h322l-13 -74h-322l-40 -231h365l-14 -77h-449z"/>
   <glyph glyph-name="Emacron" horiz-adv-x="609" unicode="Ē" d="M262 782l11 60h263l-11 -60h-263zM45 0l122 690h449l-13 -74h-365l-42 -234h322l-13 -74h-322l-40 -231h365l-14 -77h-449z"/>
   <glyph glyph-name="Eogonek" horiz-adv-x="609" unicode="Ę" d="M603 616h-365l-42 -234h322l-13 -74h-322l-40 -231h365l-14 -77s-121 -41 -135 -119c-5 -31 10 -48 31 -48c30 0 51 13 69 34l41 -34c-28 -33 -60 -53 -107 -53c-59 0 -95 42 -84 106c12 69 88 102 129 114h-393l122 690h449z"/>
   <glyph glyph-name="uni1EBC" horiz-adv-x="609" unicode="Ẽ" d="M470 765c-83 0 -96 77 -149 77c-37 0 -55 -34 -60 -70l-52 6c12 70 50 117 112 117c98 0 101 -79 153 -79c39 0 57 33 65 79l56 -6c-14 -83 -58 -124 -125 -124zM45 0l122 690h449l-13 -74h-365l-42 -234h322l-13 -74h-322l-40 -231h365l-14 -77h-449z"/>
   <glyph glyph-name="F" horiz-adv-x="562" unicode="F" d="M45 0l122 690h449l-13 -74h-365l-42 -234h322l-13 -74h-322l-54 -308h-84z"/>
   <glyph glyph-name="G" horiz-adv-x="750" unicode="G" d="M328 -10c-216 0 -289 165 -254 361c33 190 159 350 371 350c131 0 221 -67 252 -189l-80 -26c-23 91 -86 137 -179 137c-163 0 -256 -131 -282 -279c-27 -150 17 -276 178 -276c115 0 227 82 257 221l-159 -3l12 67h237l-62 -353h-69l19 120c-51 -76 -130 -130 -241 -130 z"/>
   <glyph glyph-name="Gbreve" horiz-adv-x="750" unicode="Ğ" d="M463 760c-87 0 -144 49 -129 135l63 -6c-8 -46 23 -75 68 -75c49 0 95 34 103 81l63 -6c-15 -85 -85 -129 -168 -129zM328 -10c-216 0 -289 165 -254 361c33 190 159 350 371 350c131 0 221 -67 252 -189l-80 -26c-23 91 -86 137 -179 137c-163 0 -256 -131 -282 -279 c-27 -150 17 -276 178 -276c115 0 227 82 257 221l-159 -3l12 67h237l-62 -353h-69l19 120c-51 -76 -130 -130 -241 -130z"/>
   <glyph glyph-name="Gcommaaccent" horiz-adv-x="750" unicode="Ģ" d="M328 -10c-216 0 -289 165 -254 361c33 190 159 350 371 350c131 0 221 -67 252 -189l-80 -26c-23 91 -86 137 -179 137c-163 0 -256 -131 -282 -279c-27 -150 17 -276 178 -276c115 0 227 82 257 221l-159 -3l12 67h237l-62 -353h-69l19 120c-51 -76 -130 -130 -241 -130 zM176 -217l88 162h102l-138 -162h-52z"/>
   <glyph glyph-name="Gdotaccent" horiz-adv-x="750" unicode="Ġ" d="M465 777c-37 0 -60 31 -53 69c5 32 34 56 67 56c37 0 62 -30 55 -68c-5 -32 -36 -57 -69 -57zM328 -10c-216 0 -289 165 -254 361c33 190 159 350 371 350c131 0 221 -67 252 -189l-80 -26c-23 91 -86 137 -179 137c-163 0 -256 -131 -282 -279 c-27 -150 17 -276 178 -276c115 0 227 82 257 221l-159 -3l12 67h237l-62 -353h-69l19 120c-51 -76 -130 -130 -241 -130z"/>
   <glyph glyph-name="H" horiz-adv-x="700" unicode="H" d="M45 0l122 690h84l-55 -308h342l55 308h84l-122 -690h-84l54 308h-342l-54 -308h-84z"/>
   <glyph glyph-name="Hbar" horiz-adv-x="700" unicode="Ħ" d="M705 564l-8 -40h-49l-93 -524h-84l54 308h-342l-54 -308h-84l93 524h-51l8 40h50l22 126h84l-22 -126h342l22 126h84l-22 -126h50zM538 382l25 142h-342l-25 -142h342z"/>
   <glyph glyph-name="I" horiz-adv-x="264" unicode="I" d="M40 0l122 690h84l-122 -690h-84z"/>
   <glyph glyph-name="Iacute" horiz-adv-x="264" unicode="Í" d="M169 751l130 141h92l-158 -141h-64zM40 0l122 690h84l-122 -690h-84z"/>
   <glyph glyph-name="uni01CF" horiz-adv-x="264" unicode="Ǐ" d="M212 730l-132 162h75l66 -92l103 92h79zM40 0l122 690h84l-122 -690h-84z"/>
   <glyph glyph-name="Icircumflex" horiz-adv-x="264" unicode="Î" d="M51 738l190 174l133 -174h-75l-68 94l-101 -94h-79zM40 0l122 690h84l-122 -690h-84z"/>
   <glyph glyph-name="Idieresis" horiz-adv-x="264" unicode="Ï" d="M98 778l14 84h80l-14 -84h-80zM261 778l14 84h80l-14 -84h-80zM40 0l122 690h84l-122 -690h-84z"/>
   <glyph glyph-name="Idotaccent" horiz-adv-x="264" unicode="İ" d="M222 777c-37 0 -60 31 -53 69c5 32 34 56 67 56c37 0 62 -30 55 -68c-5 -32 -36 -57 -69 -57zM40 0l122 690h84l-122 -690h-84z"/>
   <glyph glyph-name="Igrave" horiz-adv-x="264" unicode="Ì" d="M181 751l-98 141h88l80 -141h-70zM40 0l122 690h84l-122 -690h-84z"/>
   <glyph glyph-name="Imacron" horiz-adv-x="264" unicode="Ī" d="M89 782l11 60h263l-11 -60h-263zM40 0l122 690h84l-122 -690h-84z"/>
   <glyph glyph-name="Iogonek" horiz-adv-x="264" unicode="Į" d="M20 -167c30 0 51 13 69 34l41 -34c-28 -33 -60 -53 -107 -53c-59 0 -95 42 -84 106c12 69 88 102 129 114h-28l122 690h84l-122 -690s-121 -41 -135 -119c-5 -31 10 -48 31 -48z"/>
   <glyph glyph-name="Itilde" horiz-adv-x="264" unicode="Ĩ" d="M297 765c-83 0 -96 77 -149 77c-37 0 -55 -34 -60 -70l-52 6c12 70 50 117 112 117c98 0 101 -79 153 -79c39 0 57 33 65 79l56 -6c-14 -83 -58 -124 -125 -124zM40 0l122 690h84l-122 -690h-84z"/>
   <glyph glyph-name="J" horiz-adv-x="515" unicode="J" d="M179 -10c-131 0 -192 96 -180 209l83 6c-8 -73 16 -140 102 -140c108 0 147 78 165 177l66 374h-260l13 74h344l-80 -449c-26 -150 -100 -251 -253 -251z"/>
   <glyph glyph-name="K" horiz-adv-x="679" unicode="K" d="M45 0l122 690h84l-72 -398l446 398h112l-313 -274l185 -416h-99l-152 358l-195 -170l-34 -188h-84z"/>
   <glyph glyph-name="Kcommaaccent" horiz-adv-x="679" unicode="Ķ" d="M45 0l122 690h84l-72 -398l446 398h112l-313 -274l185 -416h-99l-152 358l-195 -170l-34 -188h-84zM141 -217l88 162h102l-138 -162h-52z"/>
   <glyph glyph-name="L" horiz-adv-x="509" unicode="L" d="M45 0l122 690h84l-108 -613h295l-14 -77h-379z"/>
   <glyph glyph-name="Lacute" horiz-adv-x="509" unicode="Ĺ" d="M183 751l130 141h92l-158 -141h-64zM45 0l122 690h84l-108 -613h295l-14 -77h-379z"/>
   <glyph glyph-name="Lcaron" horiz-adv-x="509" unicode="Ľ" d="M45 0l122 690h84l-108 -613h295l-14 -77h-379zM313 501l94 189h102l-144 -189h-52z"/>
   <glyph glyph-name="Lcommaaccent" horiz-adv-x="509" unicode="Ļ" d="M45 0l122 690h84l-108 -613h295l-14 -77h-379zM56 -217l88 162h102l-138 -162h-52z"/>
   <glyph glyph-name="Lslash" horiz-adv-x="509" unicode="Ł" d="M143 77h295l-14 -77h-379l43 243l-113 -97h-61l185 159l68 385h84l-53 -299l112 96h61l-184 -158z"/>
   <glyph glyph-name="M" horiz-adv-x="849" unicode="M" d="M44 0l122 690h132l101 -545l293 545h134l-122 -690h-84l108 607l-296 -547h-92l-104 547l-108 -607h-84z"/>
   <glyph glyph-name="N" horiz-adv-x="680" unicode="N" d="M44 0l122 690h110l194 -583l104 583h84l-122 -690h-111l-193 583l-104 -583h-84z"/>
   <glyph glyph-name="Nacute" horiz-adv-x="680" unicode="Ń" d="M377 751l130 141h92l-158 -141h-64zM44 0l122 690h110l194 -583l104 583h84l-122 -690h-111l-193 583l-104 -583h-84z"/>
   <glyph glyph-name="Ncaron" horiz-adv-x="680" unicode="Ň" d="M420 730l-132 162h75l66 -92l103 92h79zM44 0l122 690h110l194 -583l104 583h84l-122 -690h-111l-193 583l-104 -583h-84z"/>
   <glyph glyph-name="Ncommaaccent" horiz-adv-x="680" unicode="Ņ" d="M44 0l122 690h110l194 -583l104 583h84l-122 -690h-111l-193 583l-104 -583h-84zM141 -217l88 162h102l-138 -162h-52z"/>
   <glyph glyph-name="Eng" horiz-adv-x="680" unicode="Ŋ" d="M320 -180l12 68h20c69 0 96 53 89 83l-209 612l-104 -583h-84l122 690h110l194 -583l104 583h84l-123 -693c-9 -54 -33 -177 -169 -177h-46z"/>
   <glyph glyph-name="Ntilde" horiz-adv-x="680" unicode="Ñ" d="M505 765c-83 0 -96 77 -149 77c-37 0 -55 -34 -60 -70l-52 6c12 70 50 117 112 117c98 0 101 -79 153 -79c39 0 57 33 65 79l56 -6c-14 -83 -58 -124 -125 -124zM44 0l122 690h110l194 -583l104 583h84l-122 -690h-111l-193 583l-104 -583h-84z"/>
   <glyph glyph-name="O" horiz-adv-x="746" unicode="O" d="M325 -10c-216 0 -287 166 -253 361c33 189 158 349 370 349c216 0 288 -166 254 -361c-34 -189 -159 -349 -371 -349zM331 67c165 0 257 135 283 284c25 143 -16 272 -177 272c-165 0 -257 -135 -283 -284c-25 -143 16 -272 177 -272z"/>
   <glyph glyph-name="Oacute" horiz-adv-x="746" unicode="Ó" d="M410 751l130 141h92l-158 -141h-64zM325 -10c-216 0 -287 166 -253 361c33 189 158 349 370 349c216 0 288 -166 254 -361c-34 -189 -159 -349 -371 -349zM331 67c165 0 257 135 283 284c25 143 -16 272 -177 272c-165 0 -257 -135 -283 -284c-25 -143 16 -272 177 -272z "/>
   <glyph glyph-name="uni01D1" horiz-adv-x="746" unicode="Ǒ" d="M453 730l-132 162h75l66 -92l103 92h79zM325 -10c-216 0 -287 166 -253 361c33 189 158 349 370 349c216 0 288 -166 254 -361c-34 -189 -159 -349 -371 -349zM331 67c165 0 257 135 283 284c25 143 -16 272 -177 272c-165 0 -257 -135 -283 -284 c-25 -143 16 -272 177 -272z"/>
   <glyph glyph-name="Ocircumflex" horiz-adv-x="746" unicode="Ô" d="M292 738l190 174l133 -174h-75l-68 94l-101 -94h-79zM325 -10c-216 0 -287 166 -253 361c33 189 158 349 370 349c216 0 288 -166 254 -361c-34 -189 -159 -349 -371 -349zM331 67c165 0 257 135 283 284c25 143 -16 272 -177 272c-165 0 -257 -135 -283 -284 c-25 -143 16 -272 177 -272z"/>
   <glyph glyph-name="uni1ED0" horiz-adv-x="746" unicode="Ố" d="M446 953l130 141h92l-158 -141h-64zM292 738l190 174l133 -174h-75l-68 94l-101 -94h-79zM325 -10c-216 0 -287 166 -253 361c33 189 158 349 370 349c216 0 288 -166 254 -361c-34 -189 -159 -349 -371 -349zM331 67c165 0 257 135 283 284c25 143 -16 272 -177 272 c-165 0 -257 -135 -283 -284c-25 -143 16 -272 177 -272z"/>
   <glyph glyph-name="uni1ED2" horiz-adv-x="746" unicode="Ồ" d="M458 953l-98 141h88l80 -141h-70zM292 738l190 174l133 -174h-75l-68 94l-101 -94h-79zM325 -10c-216 0 -287 166 -253 361c33 189 158 349 370 349c216 0 288 -166 254 -361c-34 -189 -159 -349 -371 -349zM331 67c165 0 257 135 283 284c25 143 -16 272 -177 272 c-165 0 -257 -135 -283 -284c-25 -143 16 -272 177 -272z"/>
   <glyph glyph-name="uni1ED6" horiz-adv-x="746" unicode="Ỗ" d="M574 967c-83 0 -96 77 -149 77c-37 0 -55 -34 -60 -70l-52 6c12 70 50 117 112 117c98 0 101 -79 153 -79c39 0 57 33 65 79l56 -6c-14 -83 -58 -124 -125 -124zM292 738l190 174l133 -174h-75l-68 94l-101 -94h-79zM325 -10c-216 0 -287 166 -253 361 c33 189 158 349 370 349c216 0 288 -166 254 -361c-34 -189 -159 -349 -371 -349zM331 67c165 0 257 135 283 284c25 143 -16 272 -177 272c-165 0 -257 -135 -283 -284c-25 -143 16 -272 177 -272z"/>
   <glyph glyph-name="Odieresis" horiz-adv-x="746" unicode="Ö" d="M339 778l14 84h80l-14 -84h-80zM502 778l14 84h80l-14 -84h-80zM325 -10c-216 0 -287 166 -253 361c33 189 158 349 370 349c216 0 288 -166 254 -361c-34 -189 -159 -349 -371 -349zM331 67c165 0 257 135 283 284c25 143 -16 272 -177 272c-165 0 -257 -135 -283 -284 c-25 -143 16 -272 177 -272z"/>
   <glyph glyph-name="Ograve" horiz-adv-x="746" unicode="Ò" d="M422 751l-98 141h88l80 -141h-70zM325 -10c-216 0 -287 166 -253 361c33 189 158 349 370 349c216 0 288 -166 254 -361c-34 -189 -159 -349 -371 -349zM331 67c165 0 257 135 283 284c25 143 -16 272 -177 272c-165 0 -257 -135 -283 -284c-25 -143 16 -272 177 -272z "/>
   <glyph glyph-name="Ohungarumlaut" horiz-adv-x="746" unicode="Ő" d="M330 751l130 141h92l-158 -141h-64zM490 751l130 141h92l-158 -141h-64zM325 -10c-216 0 -287 166 -253 361c33 189 158 349 370 349c216 0 288 -166 254 -361c-34 -189 -159 -349 -371 -349zM331 67c165 0 257 135 283 284c25 143 -16 272 -177 272 c-165 0 -257 -135 -283 -284c-25 -143 16 -272 177 -272z"/>
   <glyph glyph-name="Omacron" horiz-adv-x="746" unicode="Ō" d="M330 782l11 60h263l-11 -60h-263zM325 -10c-216 0 -287 166 -253 361c33 189 158 349 370 349c216 0 288 -166 254 -361c-34 -189 -159 -349 -371 -349zM331 67c165 0 257 135 283 284c25 143 -16 272 -177 272c-165 0 -257 -135 -283 -284c-25 -143 16 -272 177 -272z "/>
   <glyph glyph-name="Oslash" horiz-adv-x="746" unicode="Ø" d="M628 635c70 -66 89 -175 68 -296c-34 -189 -159 -349 -371 -349c-60 0 -109 13 -147 35l-19 -25h-61l41 55c-69 66 -88 176 -67 296c33 189 158 349 370 349c60 0 109 -13 147 -35l19 25h61zM154 339c-15 -84 -7 -164 36 -215l350 474c-27 16 -61 25 -103 25 c-165 0 -257 -135 -283 -284zM614 351c15 85 6 165 -36 215l-351 -474c27 -16 61 -25 104 -25c165 0 257 135 283 284z"/>
   <glyph glyph-name="Otilde" horiz-adv-x="746" unicode="Õ" d="M538 765c-83 0 -96 77 -149 77c-37 0 -55 -34 -60 -70l-52 6c12 70 50 117 112 117c98 0 101 -79 153 -79c39 0 57 33 65 79l56 -6c-14 -83 -58 -124 -125 -124zM325 -10c-216 0 -287 166 -253 361c33 189 158 349 370 349c216 0 288 -166 254 -361 c-34 -189 -159 -349 -371 -349zM331 67c165 0 257 135 283 284c25 143 -16 272 -177 272c-165 0 -257 -135 -283 -284c-25 -143 16 -272 177 -272z"/>
   <glyph glyph-name="OE" horiz-adv-x="1101" unicode="Œ" d="M320 -10c-216 0 -287 166 -253 361c33 189 158 349 370 349c120 0 183 -52 210 -129l22 119h449l-13 -74h-365l-42 -234h322l-13 -74h-322l-40 -231h365l-14 -77h-449l21 114c-53 -77 -132 -124 -248 -124zM326 67c165 0 257 135 283 284c25 143 -16 272 -177 272 c-165 0 -257 -135 -283 -284c-25 -143 16 -272 177 -272z"/>
   <glyph glyph-name="P" horiz-adv-x="545" unicode="P" d="M44 0l122 690h195c134 0 213 -74 191 -199c-21 -119 -121 -184 -255 -184h-115l-54 -307h-84zM196 383h111c91 0 150 42 164 120c12 71 -29 111 -120 111h-115z"/>
   <glyph glyph-name="Thorn" horiz-adv-x="545" unicode="Þ" d="M45 0l122 690h83l-18 -98h111c134 0 213 -74 191 -199c-21 -119 -120 -184 -254 -184h-115l-37 -209h-83zM178 285h111c91 0 151 42 164 120c13 71 -28 111 -119 111h-115z"/>
   <glyph glyph-name="Q" horiz-adv-x="746" unicode="Q" d="M599 -50l-79 95c-54 -36 -120 -55 -195 -55c-216 0 -287 166 -253 361c33 189 158 349 370 349c216 0 288 -166 254 -361c-16 -92 -55 -179 -117 -244l79 -94zM331 67c55 0 101 16 139 39l-79 96l59 51l79 -94c43 51 72 118 85 192c25 143 -16 272 -177 272 c-165 0 -257 -135 -283 -284c-25 -143 16 -272 177 -272z"/>
   <glyph glyph-name="R" horiz-adv-x="583" unicode="R" d="M45 -1l121 690h200c122 0 208 -75 186 -200c-15 -87 -83 -152 -174 -173l129 -317h-95l-123 307h-106l-54 -307h-84zM197 382h127c73 4 135 47 148 120c12 72 -35 112 -114 112h-120z"/>
   <glyph glyph-name="Racute" horiz-adv-x="583" unicode="Ŕ" d="M329 751l130 141h92l-158 -141h-64zM45 -1l121 690h200c122 0 208 -75 186 -200c-15 -87 -83 -152 -174 -173l129 -317h-95l-123 307h-106l-54 -307h-84zM197 382h127c73 4 135 47 148 120c12 72 -35 112 -114 112h-120z"/>
   <glyph glyph-name="Rcaron" horiz-adv-x="583" unicode="Ř" d="M372 730l-132 162h75l66 -92l103 92h79zM45 -1l121 690h200c122 0 208 -75 186 -200c-15 -87 -83 -152 -174 -173l129 -317h-95l-123 307h-106l-54 -307h-84zM197 382h127c73 4 135 47 148 120c12 72 -35 112 -114 112h-120z"/>
   <glyph glyph-name="Rcommaaccent" horiz-adv-x="583" unicode="Ŗ" d="M45 -1l121 690h200c122 0 208 -75 186 -200c-15 -87 -83 -152 -174 -173l129 -317h-95l-123 307h-106l-54 -307h-84zM197 382h127c73 4 135 47 148 120c12 72 -35 112 -114 112h-120zM131 -217l88 162h102l-138 -162h-52z"/>
   <glyph glyph-name="S" horiz-adv-x="546" unicode="S" d="M236 -8c-117 0 -217 64 -214 189l83 18c-6 -90 56 -130 136 -130c82 0 146 41 161 125c29 165 -310 122 -273 335c19 105 115 171 217 171c84 0 148 -35 178 -112l-70 -38c-19 53 -62 77 -112 77c-59 0 -120 -41 -131 -103c-27 -157 313 -112 273 -337 c-21 -121 -127 -195 -248 -195z"/>
   <glyph glyph-name="Sacute" horiz-adv-x="546" unicode="Ś" d="M310 751l130 141h92l-158 -141h-64zM236 -8c-117 0 -217 64 -214 189l83 18c-6 -90 56 -130 136 -130c82 0 146 41 161 125c29 165 -310 122 -273 335c19 105 115 171 217 171c84 0 148 -35 178 -112l-70 -38c-19 53 -62 77 -112 77c-59 0 -120 -41 -131 -103 c-27 -157 313 -112 273 -337c-21 -121 -127 -195 -248 -195z"/>
   <glyph glyph-name="Scaron" horiz-adv-x="546" unicode="Š" d="M353 730l-132 162h75l66 -92l103 92h79zM236 -8c-117 0 -217 64 -214 189l83 18c-6 -90 56 -130 136 -130c82 0 146 41 161 125c29 165 -310 122 -273 335c19 105 115 171 217 171c84 0 148 -35 178 -112l-70 -38c-19 53 -62 77 -112 77c-59 0 -120 -41 -131 -103 c-27 -157 313 -112 273 -337c-21 -121 -127 -195 -248 -195z"/>
   <glyph glyph-name="Scedilla" horiz-adv-x="546" unicode="Ş" d="M211 524c-27 -157 313 -112 273 -337c-20 -117 -119 -190 -235 -195l-49 -56c59 -17 86 -45 78 -88c-9 -53 -60 -92 -107 -92c-45 0 -74 30 -81 64l48 18c1 -17 13 -31 33 -31c24 0 52 21 57 49c3 19 -12 30 -35 38l-59 18l59 83c-97 14 -174 77 -171 186l83 18 c-6 -90 56 -130 136 -130c82 0 146 41 161 125c29 165 -310 122 -273 335c19 105 115 171 217 171c84 0 148 -35 178 -112l-70 -38c-19 53 -62 77 -112 77c-59 0 -120 -41 -131 -103z"/>
   <glyph glyph-name="Scommaaccent" horiz-adv-x="546" unicode="Ș" d="M236 -8c-117 0 -217 64 -214 189l83 18c-6 -90 56 -130 136 -130c82 0 146 41 161 125c29 165 -310 122 -273 335c19 105 115 171 217 171c84 0 148 -35 178 -112l-70 -38c-19 53 -62 77 -112 77c-59 0 -120 -41 -131 -103c-27 -157 313 -112 273 -337 c-21 -121 -127 -195 -248 -195zM74 -217l88 162h102l-138 -162h-52z"/>
   <glyph glyph-name="T" horiz-adv-x="566" unicode="T" d="M191 0l109 619h-231l13 71h546l-13 -71h-231l-109 -619h-84z"/>
   <glyph glyph-name="Tbar" horiz-adv-x="566" unicode="Ŧ" d="M615 619h-231l-45 -254h114l-8 -40h-113l-57 -325h-84l57 325h-113l8 40h112l45 254h-231l13 71h546z"/>
   <glyph glyph-name="Tcaron" horiz-adv-x="566" unicode="Ť" d="M363 730l-132 162h75l66 -92l103 92h79zM191 0l109 619h-231l13 71h546l-13 -71h-231l-109 -619h-84z"/>
   <glyph glyph-name="uni0162" horiz-adv-x="566" unicode="Ţ" d="M82 690h546l-13 -71h-231l-109 -619h-9l-56 -64c59 -17 86 -45 78 -88c-9 -53 -60 -92 -107 -92c-45 0 -74 30 -81 64l48 18c1 -17 13 -31 33 -31c24 0 52 21 57 49c3 19 -12 30 -35 38l-59 18l63 88h-16l109 619h-231z"/>
   <glyph glyph-name="uni021A" horiz-adv-x="566" unicode="Ț" d="M191 0l109 619h-231l13 71h546l-13 -71h-231l-109 -619h-84zM84 -217l88 162h102l-138 -162h-52z"/>
   <glyph glyph-name="U" horiz-adv-x="648" unicode="U" d="M276 -10c-175 0 -226 125 -196 296l72 404h84l-73 -410c-22 -125 -3 -210 119 -210c126 0 180 91 202 216l72 404h84l-72 -405c-31 -176 -121 -295 -292 -295z"/>
   <glyph glyph-name="Uacute" horiz-adv-x="648" unicode="Ú" d="M361 751l130 141h92l-158 -141h-64zM276 -10c-175 0 -226 125 -196 296l72 404h84l-73 -410c-22 -125 -3 -210 119 -210c126 0 180 91 202 216l72 404h84l-72 -405c-31 -176 -121 -295 -292 -295z"/>
   <glyph glyph-name="uni01D3" horiz-adv-x="648" unicode="Ǔ" d="M404 730l-132 162h75l66 -92l103 92h79zM276 -10c-175 0 -226 125 -196 296l72 404h84l-73 -410c-22 -125 -3 -210 119 -210c126 0 180 91 202 216l72 404h84l-72 -405c-31 -176 -121 -295 -292 -295z"/>
   <glyph glyph-name="Ucircumflex" horiz-adv-x="648" unicode="Û" d="M243 738l190 174l133 -174h-75l-68 94l-101 -94h-79zM276 -10c-175 0 -226 125 -196 296l72 404h84l-73 -410c-22 -125 -3 -210 119 -210c126 0 180 91 202 216l72 404h84l-72 -405c-31 -176 -121 -295 -292 -295z"/>
   <glyph glyph-name="Udieresis" horiz-adv-x="648" unicode="Ü" d="M290 778l14 84h80l-14 -84h-80zM453 778l14 84h80l-14 -84h-80zM276 -10c-175 0 -226 125 -196 296l72 404h84l-73 -410c-22 -125 -3 -210 119 -210c126 0 180 91 202 216l72 404h84l-72 -405c-31 -176 -121 -295 -292 -295z"/>
   <glyph glyph-name="uni01D7" horiz-adv-x="648" unicode="Ǘ" d="M390 918l130 141h92l-158 -141h-64zM290 778l14 84h80l-14 -84h-80zM453 778l14 84h80l-14 -84h-80zM276 -10c-175 0 -226 125 -196 296l72 404h84l-73 -410c-22 -125 -3 -210 119 -210c126 0 180 91 202 216l72 404h84l-72 -405c-31 -176 -121 -295 -292 -295z"/>
   <glyph glyph-name="uni01D9" horiz-adv-x="648" unicode="Ǚ" d="M433 897l-132 162h75l66 -92l103 92h79zM290 778l14 84h80l-14 -84h-80zM453 778l14 84h80l-14 -84h-80zM276 -10c-175 0 -226 125 -196 296l72 404h84l-73 -410c-22 -125 -3 -210 119 -210c126 0 180 91 202 216l72 404h84l-72 -405c-31 -176 -121 -295 -292 -295z"/>
   <glyph glyph-name="uni01DB" horiz-adv-x="648" unicode="Ǜ" d="M402 918l-98 141h88l80 -141h-70zM290 778l14 84h80l-14 -84h-80zM453 778l14 84h80l-14 -84h-80zM276 -10c-175 0 -226 125 -196 296l72 404h84l-73 -410c-22 -125 -3 -210 119 -210c126 0 180 91 202 216l72 404h84l-72 -405c-31 -176 -121 -295 -292 -295z"/>
   <glyph glyph-name="uni01D5" horiz-adv-x="648" unicode="Ǖ" d="M310 949l11 60h263l-11 -60h-263zM290 778l14 84h80l-14 -84h-80zM453 778l14 84h80l-14 -84h-80zM276 -10c-175 0 -226 125 -196 296l72 404h84l-73 -410c-22 -125 -3 -210 119 -210c126 0 180 91 202 216l72 404h84l-72 -405c-31 -176 -121 -295 -292 -295z"/>
   <glyph glyph-name="Ugrave" horiz-adv-x="648" unicode="Ù" d="M373 751l-98 141h88l80 -141h-70zM276 -10c-175 0 -226 125 -196 296l72 404h84l-73 -410c-22 -125 -3 -210 119 -210c126 0 180 91 202 216l72 404h84l-72 -405c-31 -176 -121 -295 -292 -295z"/>
   <glyph glyph-name="Uhungarumlaut" horiz-adv-x="648" unicode="Ű" d="M281 751l130 141h92l-158 -141h-64zM441 751l130 141h92l-158 -141h-64zM276 -10c-175 0 -226 125 -196 296l72 404h84l-73 -410c-22 -125 -3 -210 119 -210c126 0 180 91 202 216l72 404h84l-72 -405c-31 -176 -121 -295 -292 -295z"/>
   <glyph glyph-name="Umacron" horiz-adv-x="648" unicode="Ū" d="M281 782l11 60h263l-11 -60h-263zM276 -10c-175 0 -226 125 -196 296l72 404h84l-73 -410c-22 -125 -3 -210 119 -210c126 0 180 91 202 216l72 404h84l-72 -405c-31 -176 -121 -295 -292 -295z"/>
   <glyph glyph-name="Uogonek" horiz-adv-x="648" unicode="Ų" d="M556 690h84l-72 -405c-25 -141 -88 -246 -200 -282c-34 -15 -105 -52 -116 -111c-5 -31 10 -48 31 -48c30 0 51 13 69 34l41 -34c-28 -33 -60 -53 -107 -53c-59 0 -95 42 -84 106c8 45 43 74 77 93h-3c-175 0 -226 125 -196 296l72 404h84l-73 -410 c-22 -125 -3 -210 119 -210c126 0 180 91 202 216z"/>
   <glyph glyph-name="Uring" horiz-adv-x="648" unicode="Ů" d="M406 729c-57 0 -93 47 -83 104c9 51 57 91 109 91c55 0 94 -45 84 -103c-9 -51 -58 -92 -110 -92zM407 778c29 0 57 24 62 55c4 24 -10 42 -37 42c-31 0 -56 -22 -62 -54c-4 -26 12 -43 37 -43zM276 -10c-175 0 -226 125 -196 296l72 404h84l-73 -410 c-22 -125 -3 -210 119 -210c126 0 180 91 202 216l72 404h84l-72 -405c-31 -176 -121 -295 -292 -295z"/>
   <glyph glyph-name="Utilde" horiz-adv-x="648" unicode="Ũ" d="M489 765c-83 0 -96 77 -149 77c-37 0 -55 -34 -60 -70l-52 6c12 70 50 117 112 117c98 0 101 -79 153 -79c39 0 57 33 65 79l56 -6c-14 -83 -58 -124 -125 -124zM276 -10c-175 0 -226 125 -196 296l72 404h84l-73 -410c-22 -125 -3 -210 119 -210c126 0 180 91 202 216 l72 404h84l-72 -405c-31 -176 -121 -295 -292 -295z"/>
   <glyph glyph-name="V" horiz-adv-x="624" unicode="V" d="M228 0l-140 690h87l107 -573l309 573h91l-383 -690h-71z"/>
   <glyph glyph-name="W" horiz-adv-x="931" unicode="W" d="M162 0l-74 690h85l58 -582l261 522h67l77 -522l264 582h89l-318 -690h-90l-77 494l-252 -494h-90z"/>
   <glyph glyph-name="Wacute" horiz-adv-x="931" unicode="Ẃ" d="M503 751l130 141h92l-158 -141h-64zM162 0l-74 690h85l58 -582l261 522h67l77 -522l264 582h89l-318 -690h-90l-77 494l-252 -494h-90z"/>
   <glyph glyph-name="Wcircumflex" horiz-adv-x="931" unicode="Ŵ" d="M385 738l190 174l133 -174h-75l-68 94l-101 -94h-79zM162 0l-74 690h85l58 -582l261 522h67l77 -522l264 582h89l-318 -690h-90l-77 494l-252 -494h-90z"/>
   <glyph glyph-name="Wdieresis" horiz-adv-x="931" unicode="Ẅ" d="M432 778l14 84h80l-14 -84h-80zM595 778l14 84h80l-14 -84h-80zM162 0l-74 690h85l58 -582l261 522h67l77 -522l264 582h89l-318 -690h-90l-77 494l-252 -494h-90z"/>
   <glyph glyph-name="Wgrave" horiz-adv-x="931" unicode="Ẁ" d="M515 751l-98 141h88l80 -141h-70zM162 0l-74 690h85l58 -582l261 522h67l77 -522l264 582h89l-318 -690h-90l-77 494l-252 -494h-90z"/>
   <glyph glyph-name="X" horiz-adv-x="608" unicode="X" d="M-26 0l290 345l-165 345h98l127 -284l229 284h102l-289 -345l166 -345h-98l-130 279l-228 -279h-102z"/>
   <glyph glyph-name="Y" horiz-adv-x="632" unicode="Y" d="M224 0l49 270l-190 420h96l147 -338l269 338h100l-338 -420l-49 -270h-84z"/>
   <glyph glyph-name="Yacute" horiz-adv-x="632" unicode="Ý" d="M353 751l130 141h92l-158 -141h-64zM224 0l49 270l-190 420h96l147 -338l269 338h100l-338 -420l-49 -270h-84z"/>
   <glyph glyph-name="Ycircumflex" horiz-adv-x="632" unicode="Ŷ" d="M235 738l190 174l133 -174h-75l-68 94l-101 -94h-79zM224 0l49 270l-190 420h96l147 -338l269 338h100l-338 -420l-49 -270h-84z"/>
   <glyph glyph-name="Ydieresis" horiz-adv-x="632" unicode="Ÿ" d="M282 778l14 84h80l-14 -84h-80zM445 778l14 84h80l-14 -84h-80zM224 0l49 270l-190 420h96l147 -338l269 338h100l-338 -420l-49 -270h-84z"/>
   <glyph glyph-name="Ygrave" horiz-adv-x="632" unicode="Ỳ" d="M365 751l-98 141h88l80 -141h-70zM224 0l49 270l-190 420h96l147 -338l269 338h100l-338 -420l-49 -270h-84z"/>
   <glyph glyph-name="uni1EF8" horiz-adv-x="632" unicode="Ỹ" d="M481 765c-83 0 -96 77 -149 77c-37 0 -55 -34 -60 -70l-52 6c12 70 50 117 112 117c98 0 101 -79 153 -79c39 0 57 33 65 79l56 -6c-14 -83 -58 -124 -125 -124zM224 0l49 270l-190 420h96l147 -338l269 338h100l-338 -420l-49 -270h-84z"/>
   <glyph glyph-name="Z" horiz-adv-x="631" unicode="Z" d="M-5 0l10 65l527 551h-406l13 74h514l-11 -68l-524 -545h427l-14 -77h-536z"/>
   <glyph glyph-name="Zacute" horiz-adv-x="631" unicode="Ź" d="M353 751l130 141h92l-158 -141h-64zM-5 0l10 65l527 551h-406l13 74h514l-11 -68l-524 -545h427l-14 -77h-536z"/>
   <glyph glyph-name="Zcaron" horiz-adv-x="631" unicode="Ž" d="M396 730l-132 162h75l66 -92l103 92h79zM-5 0l10 65l527 551h-406l13 74h514l-11 -68l-524 -545h427l-14 -77h-536z"/>
   <glyph glyph-name="Zdotaccent" horiz-adv-x="631" unicode="Ż" d="M406 777c-37 0 -60 31 -53 69c5 32 34 56 67 56c37 0 62 -30 55 -68c-5 -32 -36 -57 -69 -57zM-5 0l10 65l527 551h-406l13 74h514l-11 -68l-524 -545h427l-14 -77h-536z"/>
   <glyph glyph-name="a" horiz-adv-x="521" unicode="a" d="M160 -10c-88 0 -151 60 -135 152c18 101 98 139 203 139l150 3c16 90 -4 142 -93 142c-59 0 -112 -36 -142 -72l-54 49c58 63 120 93 204 93c124 0 181 -80 160 -199l-52 -297h-65l9 82c-54 -65 -110 -92 -185 -92zM184 61c89 0 169 81 183 159l-140 -3 c-59 0 -112 -32 -122 -87c-9 -52 31 -69 79 -69z"/>
   <glyph glyph-name="aacute" horiz-adv-x="521" unicode="á" d="M262 549l130 141h92l-158 -141h-64zM160 -10c-88 0 -151 60 -135 152c18 101 98 139 203 139l150 3c16 90 -4 142 -93 142c-59 0 -112 -36 -142 -72l-54 49c58 63 120 93 204 93c124 0 181 -80 160 -199l-52 -297h-65l9 82c-54 -65 -110 -92 -185 -92zM184 61 c89 0 169 81 183 159l-140 -3c-59 0 -112 -32 -122 -87c-9 -52 31 -69 79 -69z"/>
   <glyph glyph-name="abreve" horiz-adv-x="521" unicode="ă" d="M313 558c-87 0 -144 49 -129 135l63 -6c-8 -46 23 -75 68 -75c49 0 95 34 103 81l63 -6c-15 -85 -85 -129 -168 -129zM160 -10c-88 0 -151 60 -135 152c18 101 98 139 203 139l150 3c16 90 -4 142 -93 142c-59 0 -112 -36 -142 -72l-54 49c58 63 120 93 204 93 c124 0 181 -80 160 -199l-52 -297h-65l9 82c-54 -65 -110 -92 -185 -92zM184 61c89 0 169 81 183 159l-140 -3c-59 0 -112 -32 -122 -87c-9 -52 31 -69 79 -69z"/>
   <glyph glyph-name="uni1EAF" horiz-adv-x="521" unicode="ắ" d="M298 751l130 141h92l-158 -141h-64zM313 558c-87 0 -144 49 -129 135l63 -6c-8 -46 23 -75 68 -75c49 0 95 34 103 81l63 -6c-15 -85 -85 -129 -168 -129zM160 -10c-88 0 -151 60 -135 152c18 101 98 139 203 139l150 3c16 90 -4 142 -93 142c-59 0 -112 -36 -142 -72 l-54 49c58 63 120 93 204 93c124 0 181 -80 160 -199l-52 -297h-65l9 82c-54 -65 -110 -92 -185 -92zM184 61c89 0 169 81 183 159l-140 -3c-59 0 -112 -32 -122 -87c-9 -52 31 -69 79 -69z"/>
   <glyph glyph-name="uni1EB1" horiz-adv-x="521" unicode="ằ" d="M310 751l-98 141h88l80 -141h-70zM313 558c-87 0 -144 49 -129 135l63 -6c-8 -46 23 -75 68 -75c49 0 95 34 103 81l63 -6c-15 -85 -85 -129 -168 -129zM160 -10c-88 0 -151 60 -135 152c18 101 98 139 203 139l150 3c16 90 -4 142 -93 142c-59 0 -112 -36 -142 -72 l-54 49c58 63 120 93 204 93c124 0 181 -80 160 -199l-52 -297h-65l9 82c-54 -65 -110 -92 -185 -92zM184 61c89 0 169 81 183 159l-140 -3c-59 0 -112 -32 -122 -87c-9 -52 31 -69 79 -69z"/>
   <glyph glyph-name="uni1EB5" horiz-adv-x="521" unicode="ẵ" d="M426 765c-83 0 -96 77 -149 77c-37 0 -55 -34 -60 -70l-52 6c12 70 50 117 112 117c98 0 101 -79 153 -79c39 0 57 33 65 79l56 -6c-14 -83 -58 -124 -125 -124zM313 558c-87 0 -144 49 -129 135l63 -6c-8 -46 23 -75 68 -75c49 0 95 34 103 81l63 -6 c-15 -85 -85 -129 -168 -129zM160 -10c-88 0 -151 60 -135 152c18 101 98 139 203 139l150 3c16 90 -4 142 -93 142c-59 0 -112 -36 -142 -72l-54 49c58 63 120 93 204 93c124 0 181 -80 160 -199l-52 -297h-65l9 82c-54 -65 -110 -92 -185 -92zM184 61c89 0 169 81 183 159 l-140 -3c-59 0 -112 -32 -122 -87c-9 -52 31 -69 79 -69z"/>
   <glyph glyph-name="uni01CE" horiz-adv-x="521" unicode="ǎ" d="M305 528l-132 162h75l66 -92l103 92h79zM160 -10c-88 0 -151 60 -135 152c18 101 98 139 203 139l150 3c16 90 -4 142 -93 142c-59 0 -112 -36 -142 -72l-54 49c58 63 120 93 204 93c124 0 181 -80 160 -199l-52 -297h-65l9 82c-54 -65 -110 -92 -185 -92zM184 61 c89 0 169 81 183 159l-140 -3c-59 0 -112 -32 -122 -87c-9 -52 31 -69 79 -69z"/>
   <glyph glyph-name="acircumflex" horiz-adv-x="521" unicode="â" d="M144 536l190 174l133 -174h-75l-68 94l-101 -94h-79zM160 -10c-88 0 -151 60 -135 152c18 101 98 139 203 139l150 3c16 90 -4 142 -93 142c-59 0 -112 -36 -142 -72l-54 49c58 63 120 93 204 93c124 0 181 -80 160 -199l-52 -297h-65l9 82c-54 -65 -110 -92 -185 -92z M184 61c89 0 169 81 183 159l-140 -3c-59 0 -112 -32 -122 -87c-9 -52 31 -69 79 -69z"/>
   <glyph glyph-name="uni1EA5" horiz-adv-x="521" unicode="ấ" d="M298 751l130 141h92l-158 -141h-64zM144 536l190 174l133 -174h-75l-68 94l-101 -94h-79zM160 -10c-88 0 -151 60 -135 152c18 101 98 139 203 139l150 3c16 90 -4 142 -93 142c-59 0 -112 -36 -142 -72l-54 49c58 63 120 93 204 93c124 0 181 -80 160 -199l-52 -297h-65 l9 82c-54 -65 -110 -92 -185 -92zM184 61c89 0 169 81 183 159l-140 -3c-59 0 -112 -32 -122 -87c-9 -52 31 -69 79 -69z"/>
   <glyph glyph-name="uni1EA7" horiz-adv-x="521" unicode="ầ" d="M310 751l-98 141h88l80 -141h-70zM144 536l190 174l133 -174h-75l-68 94l-101 -94h-79zM160 -10c-88 0 -151 60 -135 152c18 101 98 139 203 139l150 3c16 90 -4 142 -93 142c-59 0 -112 -36 -142 -72l-54 49c58 63 120 93 204 93c124 0 181 -80 160 -199l-52 -297h-65 l9 82c-54 -65 -110 -92 -185 -92zM184 61c89 0 169 81 183 159l-140 -3c-59 0 -112 -32 -122 -87c-9 -52 31 -69 79 -69z"/>
   <glyph glyph-name="uni1EAB" horiz-adv-x="521" unicode="ẫ" d="M426 765c-83 0 -96 77 -149 77c-37 0 -55 -34 -60 -70l-52 6c12 70 50 117 112 117c98 0 101 -79 153 -79c39 0 57 33 65 79l56 -6c-14 -83 -58 -124 -125 -124zM144 536l190 174l133 -174h-75l-68 94l-101 -94h-79zM160 -10c-88 0 -151 60 -135 152 c18 101 98 139 203 139l150 3c16 90 -4 142 -93 142c-59 0 -112 -36 -142 -72l-54 49c58 63 120 93 204 93c124 0 181 -80 160 -199l-52 -297h-65l9 82c-54 -65 -110 -92 -185 -92zM184 61c89 0 169 81 183 159l-140 -3c-59 0 -112 -32 -122 -87c-9 -52 31 -69 79 -69z"/>
   <glyph glyph-name="adieresis" horiz-adv-x="521" unicode="ä" d="M191 576l14 84h80l-14 -84h-80zM354 576l14 84h80l-14 -84h-80zM160 -10c-88 0 -151 60 -135 152c18 101 98 139 203 139l150 3c16 90 -4 142 -93 142c-59 0 -112 -36 -142 -72l-54 49c58 63 120 93 204 93c124 0 181 -80 160 -199l-52 -297h-65l9 82 c-54 -65 -110 -92 -185 -92zM184 61c89 0 169 81 183 159l-140 -3c-59 0 -112 -32 -122 -87c-9 -52 31 -69 79 -69z"/>
   <glyph glyph-name="agrave" horiz-adv-x="521" unicode="à" d="M274 549l-98 141h88l80 -141h-70zM160 -10c-88 0 -151 60 -135 152c18 101 98 139 203 139l150 3c16 90 -4 142 -93 142c-59 0 -112 -36 -142 -72l-54 49c58 63 120 93 204 93c124 0 181 -80 160 -199l-52 -297h-65l9 82c-54 -65 -110 -92 -185 -92zM184 61 c89 0 169 81 183 159l-140 -3c-59 0 -112 -32 -122 -87c-9 -52 31 -69 79 -69z"/>
   <glyph glyph-name="amacron" horiz-adv-x="521" unicode="ā" d="M182 580l11 60h263l-11 -60h-263zM160 -10c-88 0 -151 60 -135 152c18 101 98 139 203 139l150 3c16 90 -4 142 -93 142c-59 0 -112 -36 -142 -72l-54 49c58 63 120 93 204 93c124 0 181 -80 160 -199l-52 -297h-65l9 82c-54 -65 -110 -92 -185 -92zM184 61 c89 0 169 81 183 159l-140 -3c-59 0 -112 -32 -122 -87c-9 -52 31 -69 79 -69z"/>
   <glyph glyph-name="aogonek" horiz-adv-x="521" unicode="ą" d="M401 0c0 0 -121 -41 -135 -119c-5 -31 10 -48 31 -48c30 0 51 13 69 34l41 -34c-28 -33 -60 -53 -107 -53c-59 0 -95 42 -84 106c12 69 88 102 129 114h-9l9 82c-54 -65 -110 -92 -185 -92c-88 0 -151 60 -135 152c18 101 98 139 203 139l150 3c16 90 -4 142 -93 142 c-59 0 -112 -36 -142 -72l-54 49c58 63 120 93 204 93c124 0 181 -80 160 -199zM184 61c89 0 169 81 183 159l-140 -3c-59 0 -112 -32 -122 -87c-9 -52 31 -69 79 -69z"/>
   <glyph glyph-name="aring" horiz-adv-x="521" unicode="å" d="M307 527c-57 0 -93 47 -83 104c9 51 57 91 109 91c55 0 94 -45 84 -103c-9 -51 -58 -92 -110 -92zM308 576c29 0 57 24 62 55c4 24 -10 42 -37 42c-31 0 -56 -22 -62 -54c-4 -26 12 -43 37 -43zM160 -10c-88 0 -151 60 -135 152c18 101 98 139 203 139l150 3 c16 90 -4 142 -93 142c-59 0 -112 -36 -142 -72l-54 49c58 63 120 93 204 93c124 0 181 -80 160 -199l-52 -297h-65l9 82c-54 -65 -110 -92 -185 -92zM184 61c89 0 169 81 183 159l-140 -3c-59 0 -112 -32 -122 -87c-9 -52 31 -69 79 -69z"/>
   <glyph glyph-name="atilde" horiz-adv-x="521" unicode="ã" d="M390 563c-83 0 -96 77 -149 77c-37 0 -55 -34 -60 -70l-52 6c12 70 50 117 112 117c98 0 101 -79 153 -79c39 0 57 33 65 79l56 -6c-14 -83 -58 -124 -125 -124zM160 -10c-88 0 -151 60 -135 152c18 101 98 139 203 139l150 3c16 90 -4 142 -93 142 c-59 0 -112 -36 -142 -72l-54 49c58 63 120 93 204 93c124 0 181 -80 160 -199l-52 -297h-65l9 82c-54 -65 -110 -92 -185 -92zM184 61c89 0 169 81 183 159l-140 -3c-59 0 -112 -32 -122 -87c-9 -52 31 -69 79 -69z"/>
   <glyph glyph-name="ae" horiz-adv-x="830" unicode="æ" d="M155 -10c-87 0 -151 60 -135 152c18 101 98 139 203 139l152 3c16 90 -5 147 -94 147c-59 0 -112 -36 -142 -72l-55 44c58 63 120 93 204 93c83 0 131 -36 147 -91c41 56 96 89 173 89c164 0 192 -126 168 -263l-5 -17h-339c-14 -82 18 -149 108 -149c57 0 102 13 148 53 l48 -48c-64 -57 -124 -76 -199 -76c-104 0 -153 55 -165 128c-50 -83 -120 -132 -217 -132zM443 278l266 6c13 84 -18 140 -105 140c-88 0 -143 -68 -161 -146zM178 58c89 0 172 84 186 162l-142 -3c-59 0 -112 -32 -122 -87c-8 -44 36 -72 78 -72z"/>
   <glyph glyph-name="b" horiz-adv-x="582" unicode="b" d="M281 -10c-71 0 -115 31 -140 77l-13 -67h-80l122 690h80l-48 -264c40 46 94 73 160 73c130 0 181 -118 156 -261c-24 -137 -112 -248 -237 -248zM265 61c97 0 157 88 175 188c17 95 -9 179 -103 179c-97 0 -155 -90 -173 -190c-17 -95 8 -177 101 -177z"/>
   <glyph glyph-name="c" horiz-adv-x="502" unicode="c" d="M224 -10c-147 0 -198 123 -174 259c23 129 111 247 254 247c91 0 152 -52 173 -133l-78 -25c-6 56 -44 88 -99 88c-101 0 -156 -100 -171 -189c-15 -84 1 -177 99 -177c59 0 111 39 136 94l66 -35c-44 -84 -119 -129 -206 -129z"/>
   <glyph glyph-name="cacute" horiz-adv-x="502" unicode="ć" d="M252 549l130 141h92l-158 -141h-64zM224 -10c-147 0 -198 123 -174 259c23 129 111 247 254 247c91 0 152 -52 173 -133l-78 -25c-6 56 -44 88 -99 88c-101 0 -156 -100 -171 -189c-15 -84 1 -177 99 -177c59 0 111 39 136 94l66 -35c-44 -84 -119 -129 -206 -129z"/>
   <glyph glyph-name="ccaron" horiz-adv-x="502" unicode="č" d="M295 528l-132 162h75l66 -92l103 92h79zM224 -10c-147 0 -198 123 -174 259c23 129 111 247 254 247c91 0 152 -52 173 -133l-78 -25c-6 56 -44 88 -99 88c-101 0 -156 -100 -171 -189c-15 -84 1 -177 99 -177c59 0 111 39 136 94l66 -35c-44 -84 -119 -129 -206 -129z "/>
   <glyph glyph-name="ccedilla" horiz-adv-x="502" unicode="ç" d="M228 60c59 0 111 39 136 94l66 -35c-39 -74 -102 -118 -176 -127l-49 -56c59 -17 86 -45 78 -88c-9 -53 -60 -92 -107 -92c-45 0 -74 30 -81 64l48 18c1 -17 13 -31 33 -31c24 0 52 21 57 49c3 19 -12 30 -35 38l-59 18l57 80c-125 14 -168 130 -146 257 c23 129 111 247 254 247c91 0 152 -52 173 -133l-78 -25c-6 56 -44 88 -99 88c-101 0 -156 -100 -171 -189c-15 -84 1 -177 99 -177z"/>
   <glyph glyph-name="cdotaccent" horiz-adv-x="502" unicode="ċ" d="M305 575c-37 0 -60 31 -53 69c5 32 34 56 67 56c37 0 62 -30 55 -68c-5 -32 -36 -57 -69 -57zM224 -10c-147 0 -198 123 -174 259c23 129 111 247 254 247c91 0 152 -52 173 -133l-78 -25c-6 56 -44 88 -99 88c-101 0 -156 -100 -171 -189c-15 -84 1 -177 99 -177 c59 0 111 39 136 94l66 -35c-44 -84 -119 -129 -206 -129z"/>
   <glyph glyph-name="d" horiz-adv-x="580" unicode="d" d="M204 -10c-130 0 -181 117 -156 260c24 137 112 248 237 248c71 0 115 -31 140 -77l49 269h80l-122 -690h-80l12 62c-40 -46 -94 -72 -160 -72zM229 63c97 0 154 86 172 186c17 95 -7 175 -100 175c-97 0 -157 -86 -175 -186c-17 -95 9 -175 103 -175z"/>
   <glyph glyph-name="eth" horiz-adv-x="580" unicode="ð" d="M243 -8c-152 0 -217 126 -193 266c25 134 128 254 276 254c50 0 93 -24 111 -48c-1 68 -34 112 -80 148l-56 -66l-51 40l53 61c-30 16 -60 28 -77 35l46 57c24 -11 50 -23 75 -38l45 53l50 -40l-42 -48c89 -69 159 -185 117 -420c-22 -134 -126 -254 -274 -254zM247 65 c106 0 172 96 189 193c18 95 -16 181 -115 181c-106 0 -173 -96 -190 -193c-15 -91 14 -181 116 -181z"/>
   <glyph glyph-name="dcaron" horiz-adv-x="603" unicode="ď" d="M204 -10c-130 0 -181 117 -156 260c24 137 112 248 237 248c71 0 115 -31 140 -77l49 269h80l-122 -690h-80l12 62c-40 -46 -94 -72 -160 -72zM546 501l94 189h102l-144 -189h-52zM229 63c97 0 154 86 172 186c17 95 -7 175 -100 175c-97 0 -157 -86 -175 -186 c-17 -95 9 -175 103 -175z"/>
   <glyph glyph-name="dcroat" horiz-adv-x="580" unicode="đ" d="M628 614l-8 -40h-87l-101 -574h-80l12 62c-40 -46 -94 -72 -160 -72c-130 0 -181 117 -156 260c24 137 112 248 237 248c71 0 115 -31 140 -77l28 153h-143l8 40h142l14 76h80l-13 -76h87zM401 249c17 95 -7 175 -100 175c-97 0 -157 -86 -175 -186 c-17 -95 9 -175 103 -175c97 0 154 86 172 186z"/>
   <glyph glyph-name="e" horiz-adv-x="515" unicode="e" d="M227 -6c-152 0 -207 117 -183 253c22 129 111 247 254 247c164 0 192 -126 168 -263l-4 -17h-340c-14 -82 19 -149 108 -149c57 0 103 13 148 53l48 -48c-64 -57 -124 -76 -199 -76zM133 278l266 6c13 84 -18 140 -104 140c-89 0 -144 -68 -162 -146z"/>
   <glyph glyph-name="eacute" horiz-adv-x="515" unicode="é" d="M261 549l130 141h92l-158 -141h-64zM227 -6c-152 0 -207 117 -183 253c22 129 111 247 254 247c164 0 192 -126 168 -263l-4 -17h-340c-14 -82 19 -149 108 -149c57 0 103 13 148 53l48 -48c-64 -57 -124 -76 -199 -76zM133 278l266 6c13 84 -18 140 -104 140 c-89 0 -144 -68 -162 -146z"/>
   <glyph glyph-name="ecaron" horiz-adv-x="515" unicode="ě" d="M304 528l-132 162h75l66 -92l103 92h79zM227 -6c-152 0 -207 117 -183 253c22 129 111 247 254 247c164 0 192 -126 168 -263l-4 -17h-340c-14 -82 19 -149 108 -149c57 0 103 13 148 53l48 -48c-64 -57 -124 -76 -199 -76zM133 278l266 6c13 84 -18 140 -104 140 c-89 0 -144 -68 -162 -146z"/>
   <glyph glyph-name="ecircumflex" horiz-adv-x="515" unicode="ê" d="M143 536l190 174l133 -174h-75l-68 94l-101 -94h-79zM227 -6c-152 0 -207 117 -183 253c22 129 111 247 254 247c164 0 192 -126 168 -263l-4 -17h-340c-14 -82 19 -149 108 -149c57 0 103 13 148 53l48 -48c-64 -57 -124 -76 -199 -76zM133 278l266 6 c13 84 -18 140 -104 140c-89 0 -144 -68 -162 -146z"/>
   <glyph glyph-name="uni1EBF" horiz-adv-x="515" unicode="ế" d="M297 751l130 141h92l-158 -141h-64zM143 536l190 174l133 -174h-75l-68 94l-101 -94h-79zM227 -6c-152 0 -207 117 -183 253c22 129 111 247 254 247c164 0 192 -126 168 -263l-4 -17h-340c-14 -82 19 -149 108 -149c57 0 103 13 148 53l48 -48 c-64 -57 -124 -76 -199 -76zM133 278l266 6c13 84 -18 140 -104 140c-89 0 -144 -68 -162 -146z"/>
   <glyph glyph-name="uni1EC1" horiz-adv-x="515" unicode="ề" d="M309 751l-98 141h88l80 -141h-70zM143 536l190 174l133 -174h-75l-68 94l-101 -94h-79zM227 -6c-152 0 -207 117 -183 253c22 129 111 247 254 247c164 0 192 -126 168 -263l-4 -17h-340c-14 -82 19 -149 108 -149c57 0 103 13 148 53l48 -48c-64 -57 -124 -76 -199 -76z M133 278l266 6c13 84 -18 140 -104 140c-89 0 -144 -68 -162 -146z"/>
   <glyph glyph-name="uni1EC5" horiz-adv-x="515" unicode="ễ" d="M425 765c-83 0 -96 77 -149 77c-37 0 -55 -34 -60 -70l-52 6c12 70 50 117 112 117c98 0 101 -79 153 -79c39 0 57 33 65 79l56 -6c-14 -83 -58 -124 -125 -124zM143 536l190 174l133 -174h-75l-68 94l-101 -94h-79zM227 -6c-152 0 -207 117 -183 253 c22 129 111 247 254 247c164 0 192 -126 168 -263l-4 -17h-340c-14 -82 19 -149 108 -149c57 0 103 13 148 53l48 -48c-64 -57 -124 -76 -199 -76zM133 278l266 6c13 84 -18 140 -104 140c-89 0 -144 -68 -162 -146z"/>
   <glyph glyph-name="edieresis" horiz-adv-x="515" unicode="ë" d="M190 576l14 84h80l-14 -84h-80zM353 576l14 84h80l-14 -84h-80zM227 -6c-152 0 -207 117 -183 253c22 129 111 247 254 247c164 0 192 -126 168 -263l-4 -17h-340c-14 -82 19 -149 108 -149c57 0 103 13 148 53l48 -48c-64 -57 -124 -76 -199 -76zM133 278l266 6 c13 84 -18 140 -104 140c-89 0 -144 -68 -162 -146z"/>
   <glyph glyph-name="edotaccent" horiz-adv-x="515" unicode="ė" d="M314 575c-37 0 -60 31 -53 69c5 32 34 56 67 56c37 0 62 -30 55 -68c-5 -32 -36 -57 -69 -57zM227 -6c-152 0 -207 117 -183 253c22 129 111 247 254 247c164 0 192 -126 168 -263l-4 -17h-340c-14 -82 19 -149 108 -149c57 0 103 13 148 53l48 -48 c-64 -57 -124 -76 -199 -76zM133 278l266 6c13 84 -18 140 -104 140c-89 0 -144 -68 -162 -146z"/>
   <glyph glyph-name="egrave" horiz-adv-x="515" unicode="è" d="M273 549l-98 141h88l80 -141h-70zM227 -6c-152 0 -207 117 -183 253c22 129 111 247 254 247c164 0 192 -126 168 -263l-4 -17h-340c-14 -82 19 -149 108 -149c57 0 103 13 148 53l48 -48c-64 -57 -124 -76 -199 -76zM133 278l266 6c13 84 -18 140 -104 140 c-89 0 -144 -68 -162 -146z"/>
   <glyph glyph-name="emacron" horiz-adv-x="515" unicode="ē" d="M181 580l11 60h263l-11 -60h-263zM227 -6c-152 0 -207 117 -183 253c22 129 111 247 254 247c164 0 192 -126 168 -263l-4 -17h-340c-14 -82 19 -149 108 -149c57 0 103 13 148 53l48 -48c-64 -57 -124 -76 -199 -76zM133 278l266 6c13 84 -18 140 -104 140 c-89 0 -144 -68 -162 -146z"/>
   <glyph glyph-name="eogonek" horiz-adv-x="515" unicode="ę" d="M298 494c164 0 192 -126 168 -263l-4 -17h-340c-14 -82 19 -149 108 -149c57 0 103 13 148 53l48 -48c-37 -33 -74 -54 -112 -65c-36 -16 -101 -53 -111 -109c-5 -31 10 -48 31 -48c30 0 51 13 69 34l41 -34c-28 -33 -60 -53 -107 -53c-59 0 -95 42 -84 106 c8 45 43 74 77 93h-3c-152 0 -207 117 -183 253c22 129 111 247 254 247zM399 284c13 84 -18 140 -104 140c-89 0 -144 -68 -162 -146z"/>
   <glyph glyph-name="uni1EBD" horiz-adv-x="515" unicode="ẽ" d="M389 563c-83 0 -96 77 -149 77c-37 0 -55 -34 -60 -70l-52 6c12 70 50 117 112 117c98 0 101 -79 153 -79c39 0 57 33 65 79l56 -6c-14 -83 -58 -124 -125 -124zM227 -6c-152 0 -207 117 -183 253c22 129 111 247 254 247c164 0 192 -126 168 -263l-4 -17h-340 c-14 -82 19 -149 108 -149c57 0 103 13 148 53l48 -48c-64 -57 -124 -76 -199 -76zM133 278l266 6c13 84 -18 140 -104 140c-89 0 -144 -68 -162 -146z"/>
   <glyph glyph-name="f" horiz-adv-x="347" unicode="f" d="M70 0l74 420h-89l12 67h89l16 89c14 82 81 124 155 124c29 0 56 -8 79 -19l-31 -61s-15 10 -42 10c-39 0 -76 -25 -83 -62l-14 -80h137l-12 -68h-137l-74 -420h-80z"/>
   <glyph glyph-name="g" horiz-adv-x="518" unicode="g" d="M186 -224c-101 0 -217 40 -196 159c4 27 15 47 16 50l92 33c-55 27 -71 80 -65 110c6 37 35 76 75 111c-10 23 -16 53 -9 91c19 101 106 164 204 164c35 0 66 -9 87 -21l94 71l36 -59l-83 -55c17 -28 26 -64 17 -111c-17 -102 -104 -161 -202 -161c-42 0 -77 12 -101 27 c-19 -16 -44 -38 -49 -66c-9 -49 80 -44 144 -46c104 -3 206 -14 185 -138c-22 -123 -136 -159 -245 -159zM255 223c61 0 110 45 121 107c11 57 -18 99 -76 99c-62 0 -112 -48 -123 -110c-9 -56 21 -96 78 -96zM190 -152c60 0 153 17 167 93c10 58 -50 62 -117 62 c-28 0 -56 0 -80 2l-100 -69c-4 -13 -6 -88 130 -88z"/>
   <glyph glyph-name="gbreve" horiz-adv-x="518" unicode="ğ" d="M311 558c-87 0 -144 49 -129 135l63 -6c-8 -46 23 -75 68 -75c49 0 95 34 103 81l63 -6c-15 -85 -85 -129 -168 -129zM186 -224c-101 0 -217 40 -196 159c4 27 15 47 16 50l92 33c-55 27 -71 80 -65 110c6 37 35 76 75 111c-10 23 -16 53 -9 91c19 101 106 164 204 164 c35 0 66 -9 87 -21l94 71l36 -59l-83 -55c17 -28 26 -64 17 -111c-17 -102 -104 -161 -202 -161c-42 0 -77 12 -101 27c-19 -16 -44 -38 -49 -66c-9 -49 80 -44 144 -46c104 -3 206 -14 185 -138c-22 -123 -136 -159 -245 -159zM255 223c61 0 110 45 121 107 c11 57 -18 99 -76 99c-62 0 -112 -48 -123 -110c-9 -56 21 -96 78 -96zM190 -152c60 0 153 17 167 93c10 58 -50 62 -117 62c-28 0 -56 0 -80 2l-100 -69c-4 -13 -6 -88 130 -88z"/>
   <glyph glyph-name="gcommaaccent" horiz-adv-x="518" unicode="ģ" d="M464 694l-88 -145h-102l138 145h52zM186 -224c-101 0 -217 40 -196 159c4 27 15 47 16 50l92 33c-55 27 -71 80 -65 110c6 37 35 76 75 111c-10 23 -16 53 -9 91c19 101 106 164 204 164c35 0 66 -9 87 -21l94 71l36 -59l-83 -55c17 -28 26 -64 17 -111 c-17 -102 -104 -161 -202 -161c-42 0 -77 12 -101 27c-19 -16 -44 -38 -49 -66c-9 -49 80 -44 144 -46c104 -3 206 -14 185 -138c-22 -123 -136 -159 -245 -159zM255 223c61 0 110 45 121 107c11 57 -18 99 -76 99c-62 0 -112 -48 -123 -110c-9 -56 21 -96 78 -96zM190 -152 c60 0 153 17 167 93c10 58 -50 62 -117 62c-28 0 -56 0 -80 2l-100 -69c-4 -13 -6 -88 130 -88z"/>
   <glyph glyph-name="gdotaccent" horiz-adv-x="518" unicode="ġ" d="M313 575c-37 0 -60 31 -53 69c5 32 34 56 67 56c37 0 62 -30 55 -68c-5 -32 -36 -57 -69 -57zM186 -224c-101 0 -217 40 -196 159c4 27 15 47 16 50l92 33c-55 27 -71 80 -65 110c6 37 35 76 75 111c-10 23 -16 53 -9 91c19 101 106 164 204 164c35 0 66 -9 87 -21l94 71 l36 -59l-83 -55c17 -28 26 -64 17 -111c-17 -102 -104 -161 -202 -161c-42 0 -77 12 -101 27c-19 -16 -44 -38 -49 -66c-9 -49 80 -44 144 -46c104 -3 206 -14 185 -138c-22 -123 -136 -159 -245 -159zM255 223c61 0 110 45 121 107c11 57 -18 99 -76 99 c-62 0 -112 -48 -123 -110c-9 -56 21 -96 78 -96zM190 -152c60 0 153 17 167 93c10 58 -50 62 -117 62c-28 0 -56 0 -80 2l-100 -69c-4 -13 -6 -88 130 -88z"/>
   <glyph glyph-name="h" horiz-adv-x="564" unicode="h" d="M42 0l122 690h80l-50 -275c41 51 104 81 162 81c125 0 157 -97 139 -202l-52 -294h-80l51 290c12 67 5 130 -72 130c-80 0 -158 -70 -172 -148l-48 -272h-80z"/>
   <glyph glyph-name="hbar" horiz-adv-x="564" unicode="ħ" d="M356 496c125 0 157 -97 139 -202l-52 -294h-80l51 290c12 67 5 130 -72 130c-80 0 -158 -70 -172 -148l-48 -272h-80l99 559h-88l8 40h87l16 91h80l-17 -91h144l-8 -40h-143l-26 -144c41 51 104 81 162 81z"/>
   <glyph glyph-name="i" horiz-adv-x="265" unicode="i" d="M142 594l17 96h91l-17 -96h-91zM43 0l86 488h80l-86 -488h-80z"/>
   <glyph glyph-name="dotlessi" horiz-adv-x="255" unicode="ı" d="M36 0l86 488h84l-86 -488h-84z"/>
   <glyph glyph-name="iacute" horiz-adv-x="255" unicode="í" d="M129 549l130 141h92l-158 -141h-64zM36 0l86 488h84l-86 -488h-84z"/>
   <glyph glyph-name="uni01D0" horiz-adv-x="255" unicode="ǐ" d="M172 528l-132 162h75l66 -92l103 92h79zM36 0l86 488h84l-86 -488h-84z"/>
   <glyph glyph-name="icircumflex" horiz-adv-x="255" unicode="î" d="M11 536l190 174l133 -174h-75l-68 94l-101 -94h-79zM36 0l86 488h84l-86 -488h-84z"/>
   <glyph glyph-name="idieresis" horiz-adv-x="255" unicode="ï" d="M58 576l14 84h80l-14 -84h-80zM221 576l14 84h80l-14 -84h-80zM36 0l86 488h84l-86 -488h-84z"/>
   <glyph glyph-name="i.loclTRK" d="M182 575c-37 0 -60 31 -53 69c5 32 34 56 67 56c37 0 62 -30 55 -68c-5 -32 -36 -57 -69 -57zM36 0l86 488h84l-86 -488h-84z" horiz-adv-x="255"/>
   <glyph glyph-name="igrave" horiz-adv-x="255" unicode="ì" d="M141 549l-98 141h88l80 -141h-70zM36 0l86 488h84l-86 -488h-84z"/>
   <glyph glyph-name="imacron" horiz-adv-x="255" unicode="ī" d="M49 580l11 60h263l-11 -60h-263zM36 0l86 488h84l-86 -488h-84z"/>
   <glyph glyph-name="iogonek" horiz-adv-x="255" unicode="į" d="M159 690h91l-17 -96h-91zM120 0c0 0 -121 -41 -135 -119c-5 -31 10 -48 31 -48c30 0 51 13 69 34l41 -34c-28 -33 -60 -53 -107 -53c-59 0 -95 42 -84 106c12 69 88 102 129 114h-28l86 488h84z"/>
   <glyph glyph-name="itilde" horiz-adv-x="255" unicode="ĩ" d="M257 563c-83 0 -96 77 -149 77c-37 0 -55 -34 -60 -70l-52 6c12 70 50 117 112 117c98 0 101 -79 153 -79c39 0 57 33 65 79l56 -6c-14 -83 -58 -124 -125 -124zM36 0l86 488h84l-86 -488h-84z"/>
   <glyph glyph-name="j" horiz-adv-x="261" unicode="j" d="M141 594l16 96h91l-16 -96h-91zM-39 -214c-38 0 -75 15 -75 15l27 60s26 -5 50 -5c41 0 59 32 65 65l100 567h80l-99 -562c-15 -83 -61 -140 -148 -140z"/>
   <glyph glyph-name="uni0237" horiz-adv-x="261" unicode="ȷ" d="M-39 -214c-38 0 -75 15 -75 15l29 67s25 -5 49 -5c41 0 57 32 63 65l99 560h84l-99 -562c-15 -83 -63 -140 -150 -140z"/>
   <glyph glyph-name="k" horiz-adv-x="531" unicode="k" d="M44 0l122 690h80l-82 -456l258 254h103l-196 -182l137 -306h-91l-104 254l-121 -111l-26 -143h-80z"/>
   <glyph glyph-name="kcommaaccent" horiz-adv-x="531" unicode="ķ" d="M44 0l122 690h80l-82 -456l258 254h103l-196 -182l137 -306h-91l-104 254l-121 -111l-26 -143h-80zM106 -217l88 162h102l-138 -162h-52z"/>
   <glyph glyph-name="kgreenlandic" horiz-adv-x="531" unicode="ĸ" d="M45 0l86 488h79l-45 -248l257 248h103l-196 -182l137 -306h-92l-103 253l-121 -112l-26 -141h-79z"/>
   <glyph glyph-name="l" horiz-adv-x="279" unicode="l" d="M129 -10c-74 0 -79 49 -68 112l104 588h80l-106 -598s-6 -32 18 -32c23 0 47 6 47 6l-9 -63s-33 -13 -66 -13z"/>
   <glyph glyph-name="lacute" horiz-adv-x="279" unicode="ĺ" d="M170 751l130 141h92l-158 -141h-64zM129 -10c-74 0 -79 49 -68 112l104 588h80l-106 -598s-6 -32 18 -32c23 0 47 6 47 6l-9 -63s-33 -13 -66 -13z"/>
   <glyph glyph-name="lcaron" horiz-adv-x="311" unicode="ľ" d="M79 -10c-74 0 -79 49 -68 112l104 588h80l-106 -598s-6 -32 18 -32c23 0 47 6 47 6l-9 -63s-33 -13 -66 -13zM198 501l94 189h102l-144 -189h-52z"/>
   <glyph glyph-name="lcommaaccent" horiz-adv-x="279" unicode="ļ" d="M129 -10c-74 0 -79 49 -68 112l104 588h80l-106 -598s-6 -32 18 -32c23 0 47 6 47 6l-9 -63s-33 -13 -66 -13zM-12 -217l88 162h102l-138 -162h-52z"/>
   <glyph glyph-name="lslash" horiz-adv-x="279" unicode="ł" d="M139 92c0 0 -6 -32 18 -32c23 0 47 6 47 6l-9 -63s-33 -13 -66 -13c-74 0 -79 49 -68 112l25 140l-108 -93h-61l180 155l68 386h80l-54 -305l122 105h61l-194 -167z"/>
   <glyph glyph-name="m" horiz-adv-x="847" unicode="m" d="M43 0l86 488h80l-14 -76c32 53 87 85 143 85c70 0 118 -35 134 -95c43 64 101 94 166 94c125 0 158 -97 140 -202l-52 -294h-80l51 290c12 67 5 137 -72 137c-80 0 -139 -76 -153 -154l-48 -273h-80l51 292c12 67 6 135 -71 135c-80 0 -139 -76 -153 -154l-48 -273h-80z "/>
   <glyph glyph-name="n" horiz-adv-x="564" unicode="n" d="M42 0l86 488h80l-14 -73c41 51 104 81 162 81c125 0 157 -97 139 -202l-52 -294h-80l51 290c12 67 5 130 -72 130c-80 0 -158 -70 -172 -148l-48 -272h-80z"/>
   <glyph glyph-name="nacute" horiz-adv-x="564" unicode="ń" d="M283 549l130 141h92l-158 -141h-64zM42 0l86 488h80l-14 -73c41 51 104 81 162 81c125 0 157 -97 139 -202l-52 -294h-80l51 290c12 67 5 130 -72 130c-80 0 -158 -70 -172 -148l-48 -272h-80z"/>
   <glyph glyph-name="ncaron" horiz-adv-x="564" unicode="ň" d="M326 528l-132 162h75l66 -92l103 92h79zM42 0l86 488h80l-14 -73c41 51 104 81 162 81c125 0 157 -97 139 -202l-52 -294h-80l51 290c12 67 5 130 -72 130c-80 0 -158 -70 -172 -148l-48 -272h-80z"/>
   <glyph glyph-name="ncommaaccent" horiz-adv-x="564" unicode="ņ" d="M42 0l86 488h80l-14 -73c41 51 104 81 162 81c125 0 157 -97 139 -202l-52 -294h-80l51 290c12 67 5 130 -72 130c-80 0 -158 -70 -172 -148l-48 -272h-80zM83 -217l88 162h102l-138 -162h-52z"/>
   <glyph glyph-name="eng" horiz-adv-x="573" unicode="ŋ" d="M231 -180l12 68h20c77 0 95 91 95 91l55 311c12 67 6 130 -71 130c-80 0 -158 -70 -172 -148l-48 -272h-80l86 488h80l-14 -73c41 51 104 81 162 81c125 0 156 -97 138 -202l-61 -344c-1 -4 -22 -130 -156 -130h-46z"/>
   <glyph glyph-name="ntilde" horiz-adv-x="564" unicode="ñ" d="M411 563c-83 0 -96 77 -149 77c-37 0 -55 -34 -60 -70l-52 6c12 70 50 117 112 117c98 0 101 -79 153 -79c39 0 57 33 65 79l56 -6c-14 -83 -58 -124 -125 -124zM42 0l86 488h80l-14 -73c41 51 104 81 162 81c125 0 157 -97 139 -202l-52 -294h-80l51 290 c12 67 5 130 -72 130c-80 0 -158 -70 -172 -148l-48 -272h-80z"/>
   <glyph glyph-name="o" horiz-adv-x="570" unicode="o" d="M237 -10c-141 0 -218 116 -193 258c24 136 137 246 274 246c141 0 219 -116 194 -258c-24 -136 -138 -246 -275 -246zM242 60c107 0 165 89 183 188c16 92 -8 176 -111 176c-107 0 -166 -89 -183 -188c-17 -92 8 -176 111 -176z"/>
   <glyph glyph-name="oacute" horiz-adv-x="570" unicode="ó" d="M286 549l130 141h92l-158 -141h-64zM237 -10c-141 0 -218 116 -193 258c24 136 137 246 274 246c141 0 219 -116 194 -258c-24 -136 -138 -246 -275 -246zM242 60c107 0 165 89 183 188c16 92 -8 176 -111 176c-107 0 -166 -89 -183 -188c-17 -92 8 -176 111 -176z"/>
   <glyph glyph-name="uni01D2" horiz-adv-x="570" unicode="ǒ" d="M329 528l-132 162h75l66 -92l103 92h79zM237 -10c-141 0 -218 116 -193 258c24 136 137 246 274 246c141 0 219 -116 194 -258c-24 -136 -138 -246 -275 -246zM242 60c107 0 165 89 183 188c16 92 -8 176 -111 176c-107 0 -166 -89 -183 -188c-17 -92 8 -176 111 -176z "/>
   <glyph glyph-name="ocircumflex" horiz-adv-x="570" unicode="ô" d="M168 536l190 174l133 -174h-75l-68 94l-101 -94h-79zM237 -10c-141 0 -218 116 -193 258c24 136 137 246 274 246c141 0 219 -116 194 -258c-24 -136 -138 -246 -275 -246zM242 60c107 0 165 89 183 188c16 92 -8 176 -111 176c-107 0 -166 -89 -183 -188 c-17 -92 8 -176 111 -176z"/>
   <glyph glyph-name="uni1ED1" horiz-adv-x="570" unicode="ố" d="M322 751l130 141h92l-158 -141h-64zM168 536l190 174l133 -174h-75l-68 94l-101 -94h-79zM237 -10c-141 0 -218 116 -193 258c24 136 137 246 274 246c141 0 219 -116 194 -258c-24 -136 -138 -246 -275 -246zM242 60c107 0 165 89 183 188c16 92 -8 176 -111 176 c-107 0 -166 -89 -183 -188c-17 -92 8 -176 111 -176z"/>
   <glyph glyph-name="uni1ED3" horiz-adv-x="570" unicode="ồ" d="M334 751l-98 141h88l80 -141h-70zM168 536l190 174l133 -174h-75l-68 94l-101 -94h-79zM237 -10c-141 0 -218 116 -193 258c24 136 137 246 274 246c141 0 219 -116 194 -258c-24 -136 -138 -246 -275 -246zM242 60c107 0 165 89 183 188c16 92 -8 176 -111 176 c-107 0 -166 -89 -183 -188c-17 -92 8 -176 111 -176z"/>
   <glyph glyph-name="uni1ED7" horiz-adv-x="570" unicode="ỗ" d="M450 765c-83 0 -96 77 -149 77c-37 0 -55 -34 -60 -70l-52 6c12 70 50 117 112 117c98 0 101 -79 153 -79c39 0 57 33 65 79l56 -6c-14 -83 -58 -124 -125 -124zM168 536l190 174l133 -174h-75l-68 94l-101 -94h-79zM237 -10c-141 0 -218 116 -193 258 c24 136 137 246 274 246c141 0 219 -116 194 -258c-24 -136 -138 -246 -275 -246zM242 60c107 0 165 89 183 188c16 92 -8 176 -111 176c-107 0 -166 -89 -183 -188c-17 -92 8 -176 111 -176z"/>
   <glyph glyph-name="odieresis" horiz-adv-x="570" unicode="ö" d="M215 576l14 84h80l-14 -84h-80zM378 576l14 84h80l-14 -84h-80zM237 -10c-141 0 -218 116 -193 258c24 136 137 246 274 246c141 0 219 -116 194 -258c-24 -136 -138 -246 -275 -246zM242 60c107 0 165 89 183 188c16 92 -8 176 -111 176c-107 0 -166 -89 -183 -188 c-17 -92 8 -176 111 -176z"/>
   <glyph glyph-name="ograve" horiz-adv-x="570" unicode="ò" d="M298 549l-98 141h88l80 -141h-70zM237 -10c-141 0 -218 116 -193 258c24 136 137 246 274 246c141 0 219 -116 194 -258c-24 -136 -138 -246 -275 -246zM242 60c107 0 165 89 183 188c16 92 -8 176 -111 176c-107 0 -166 -89 -183 -188c-17 -92 8 -176 111 -176z"/>
   <glyph glyph-name="ohungarumlaut" horiz-adv-x="570" unicode="ő" d="M206 549l130 141h92l-158 -141h-64zM366 549l130 141h92l-158 -141h-64zM237 -10c-141 0 -218 116 -193 258c24 136 137 246 274 246c141 0 219 -116 194 -258c-24 -136 -138 -246 -275 -246zM242 60c107 0 165 89 183 188c16 92 -8 176 -111 176 c-107 0 -166 -89 -183 -188c-17 -92 8 -176 111 -176z"/>
   <glyph glyph-name="omacron" horiz-adv-x="570" unicode="ō" d="M206 580l11 60h263l-11 -60h-263zM237 -10c-141 0 -218 116 -193 258c24 136 137 246 274 246c141 0 219 -116 194 -258c-24 -136 -138 -246 -275 -246zM242 60c107 0 165 89 183 188c16 92 -8 176 -111 176c-107 0 -166 -89 -183 -188c-17 -92 8 -176 111 -176z"/>
   <glyph glyph-name="oslash" horiz-adv-x="570" unicode="ø" d="M450 448c54 -47 77 -124 62 -212c-24 -136 -138 -246 -275 -246c-41 0 -76 10 -105 27l-12 -16h-43l27 36c-52 47 -75 124 -60 211c24 136 137 246 274 246c40 0 75 -9 104 -26l14 18h42zM131 236c-10 -53 -6 -103 19 -136l229 309c-17 9 -38 15 -65 15 c-107 0 -166 -89 -183 -188zM425 248c9 54 5 105 -21 138l-228 -310c17 -10 39 -16 66 -16c107 0 165 89 183 188z"/>
   <glyph glyph-name="otilde" horiz-adv-x="570" unicode="õ" d="M414 563c-83 0 -96 77 -149 77c-37 0 -55 -34 -60 -70l-52 6c12 70 50 117 112 117c98 0 101 -79 153 -79c39 0 57 33 65 79l56 -6c-14 -83 -58 -124 -125 -124zM237 -10c-141 0 -218 116 -193 258c24 136 137 246 274 246c141 0 219 -116 194 -258 c-24 -136 -138 -246 -275 -246zM242 60c107 0 165 89 183 188c16 92 -8 176 -111 176c-107 0 -166 -89 -183 -188c-17 -92 8 -176 111 -176z"/>
   <glyph glyph-name="oe" horiz-adv-x="890" unicode="œ" d="M232 -10c-141 0 -218 116 -193 258c24 136 137 246 274 246c84 0 141 -42 166 -101c44 63 106 101 188 101c164 0 192 -126 168 -263l-5 -17h-339c-14 -82 18 -149 108 -149c57 0 102 13 148 53l48 -48c-64 -57 -124 -76 -199 -76c-90 0 -142 41 -165 98 c-49 -64 -118 -102 -199 -102zM502 278l266 6c13 84 -18 140 -105 140c-88 0 -143 -68 -161 -146zM237 62c107 0 165 87 183 186c16 92 -9 174 -112 174c-107 0 -165 -87 -182 -186c-17 -92 8 -174 111 -174z"/>
   <glyph glyph-name="p" horiz-adv-x="572" unicode="p" d="M6 -214l124 702h80l-13 -62c41 46 94 72 161 72c129 0 181 -117 156 -260c-24 -137 -113 -248 -238 -248c-70 0 -115 31 -139 77l-51 -281h-80zM260 61c98 0 157 88 175 188c17 95 -9 178 -102 178c-98 0 -155 -89 -173 -189c-17 -95 7 -177 100 -177z"/>
   <glyph glyph-name="thorn" horiz-adv-x="582" unicode="þ" d="M7 -214l160 904h83l-48 -264c40 46 94 72 160 72c130 0 181 -117 156 -260c-24 -137 -112 -248 -237 -248c-71 0 -115 31 -140 77l-51 -281h-83zM265 63c97 0 157 86 175 186c17 95 -9 175 -103 175c-97 0 -157 -86 -175 -186c-17 -95 10 -175 103 -175z"/>
   <glyph glyph-name="q" horiz-adv-x="580" unicode="q" d="M317 -214l50 276c-40 -46 -94 -72 -160 -72c-130 0 -181 117 -156 260c24 137 112 248 237 248c71 0 115 -31 140 -77l13 67h80l-124 -702h-80zM232 61c97 0 154 88 172 188c17 95 -7 178 -100 178c-97 0 -157 -89 -175 -189c-17 -95 9 -177 103 -177z"/>
   <glyph glyph-name="r" horiz-adv-x="365" unicode="r" d="M33 0l86 488h81l-16 -86c31 61 96 93 147 93c29 0 65 -9 86 -27l-38 -62c-16 15 -36 19 -57 19c-87 0 -152 -99 -173 -219l-36 -206h-80z"/>
   <glyph glyph-name="racute" horiz-adv-x="365" unicode="ŕ" d="M186 549l130 141h92l-158 -141h-64zM33 0l86 488h81l-16 -86c31 61 96 93 147 93c29 0 65 -9 86 -27l-38 -62c-16 15 -36 19 -57 19c-87 0 -152 -99 -173 -219l-36 -206h-80z"/>
   <glyph glyph-name="rcaron" horiz-adv-x="365" unicode="ř" d="M229 528l-132 162h75l66 -92l103 92h79zM33 0l86 488h81l-16 -86c31 61 96 93 147 93c29 0 65 -9 86 -27l-38 -62c-16 15 -36 19 -57 19c-87 0 -152 -99 -173 -219l-36 -206h-80z"/>
   <glyph glyph-name="rcommaaccent" horiz-adv-x="365" unicode="ŗ" d="M33 0l86 488h81l-16 -86c31 61 96 93 147 93c29 0 65 -9 86 -27l-38 -62c-16 15 -36 19 -57 19c-87 0 -152 -99 -173 -219l-36 -206h-80zM-76 -217l88 162h102l-138 -162h-52z"/>
   <glyph glyph-name="s" horiz-adv-x="436" unicode="s" d="M176 -10c-94 0 -155 60 -166 126l70 28c8 -47 45 -84 101 -84c52 0 103 25 113 83c21 116 -255 35 -222 219c14 82 96 133 175 133c84 0 131 -47 151 -99l-65 -31c-13 37 -39 60 -90 60c-47 0 -90 -25 -99 -72c-17 -98 260 -24 226 -218c-17 -93 -107 -145 -194 -145z "/>
   <glyph glyph-name="sacute" horiz-adv-x="436" unicode="ś" d="M219 549l130 141h92l-158 -141h-64zM176 -10c-94 0 -155 60 -166 126l70 28c8 -47 45 -84 101 -84c52 0 103 25 113 83c21 116 -255 35 -222 219c14 82 96 133 175 133c84 0 131 -47 151 -99l-65 -31c-13 37 -39 60 -90 60c-47 0 -90 -25 -99 -72 c-17 -98 260 -24 226 -218c-17 -93 -107 -145 -194 -145z"/>
   <glyph glyph-name="scaron" horiz-adv-x="436" unicode="š" d="M262 528l-132 162h75l66 -92l103 92h79zM176 -10c-94 0 -155 60 -166 126l70 28c8 -47 45 -84 101 -84c52 0 103 25 113 83c21 116 -255 35 -222 219c14 82 96 133 175 133c84 0 131 -47 151 -99l-65 -31c-13 37 -39 60 -90 60c-47 0 -90 -25 -99 -72 c-17 -98 260 -24 226 -218c-17 -93 -107 -145 -194 -145z"/>
   <glyph glyph-name="scedilla" horiz-adv-x="436" unicode="ş" d="M144 353c-17 -98 260 -24 226 -218c-15 -79 -82 -129 -156 -142l-50 -57c59 -17 86 -45 78 -88c-9 -53 -60 -92 -107 -92c-45 0 -74 30 -81 64l48 18c1 -17 13 -31 33 -31c24 0 52 21 57 49c3 19 -12 30 -35 38l-59 18l57 79c-82 8 -135 64 -145 125l70 28 c8 -47 45 -84 101 -84c52 0 103 25 113 83c21 116 -255 35 -222 219c14 82 96 133 175 133c84 0 131 -47 151 -99l-65 -31c-13 37 -39 60 -90 60c-47 0 -90 -25 -99 -72z"/>
   <glyph glyph-name="scommaaccent" horiz-adv-x="436" unicode="ș" d="M176 -10c-94 0 -155 60 -166 126l70 28c8 -47 45 -84 101 -84c52 0 103 25 113 83c21 116 -255 35 -222 219c14 82 96 133 175 133c84 0 131 -47 151 -99l-65 -31c-13 37 -39 60 -90 60c-47 0 -90 -25 -99 -72c-17 -98 260 -24 226 -218c-17 -93 -107 -145 -194 -145z M38 -217l88 162h102l-138 -162h-52z"/>
   <glyph glyph-name="germandbls" horiz-adv-x="515" unicode="ß" d="M291 -9c-53 0 -93 16 -135 37l43 71c33 -21 65 -30 98 -30c45 0 88 36 96 82c18 96 -122 124 -103 231c16 82 120 81 134 160c9 49 -17 86 -88 86c-75 0 -126 -51 -138 -118l-90 -510h-89l91 516c21 119 119 184 229 184c95 0 189 -66 170 -174 c-16 -96 -130 -93 -141 -159c-11 -65 139 -86 115 -222c-15 -91 -99 -154 -192 -154z"/>
   <glyph glyph-name="t" horiz-adv-x="336" unicode="t" d="M183 -10c-89 0 -118 59 -104 142l51 288h-76l12 68h76l19 112l92 70l-31 -182h125l-12 -68h-125l-52 -296c-9 -49 7 -64 37 -64c43 0 67 11 67 11l-10 -68s-28 -13 -69 -13z"/>
   <glyph glyph-name="tbar" horiz-adv-x="336" unicode="ŧ" d="M335 420h-125l-27 -156h137l-8 -40h-136l-18 -100c-9 -49 7 -64 37 -64c43 0 67 11 67 11l-10 -68s-28 -13 -69 -13c-89 0 -118 59 -104 142l16 92h-93l8 40h92l28 156h-76l12 68h76l19 112l92 70l-31 -182h125z"/>
   <glyph glyph-name="tcaron" horiz-adv-x="336" unicode="ť" d="M291 541l94 189h102l-144 -189h-52zM183 -10c-89 0 -118 59 -104 142l51 288h-76l12 68h76l19 112l92 70l-31 -182h125l-12 -68h-125l-52 -296c-9 -49 7 -64 37 -64c43 0 67 11 67 11l-10 -68s-28 -13 -69 -13z"/>
   <glyph glyph-name="uni0163" horiz-adv-x="336" unicode="ţ" d="M210 420l-52 -296c-9 -49 7 -64 37 -64c43 0 67 11 67 11l-10 -68s-18 -8 -46 -12l-48 -55c59 -17 86 -45 78 -88c-9 -53 -60 -92 -107 -92c-45 0 -74 30 -81 64l48 18c1 -17 13 -31 33 -31c24 0 52 21 57 49c3 19 -12 30 -35 38l-59 18l58 81c-63 13 -83 67 -71 139 l51 288h-76l12 68h76l19 112l92 70l-31 -182h125l-12 -68h-125z"/>
   <glyph glyph-name="uni021B" horiz-adv-x="336" unicode="ț" d="M183 -10c-89 0 -118 59 -104 142l51 288h-76l12 68h76l19 112l92 70l-31 -182h125l-12 -68h-125l-52 -296c-9 -49 7 -64 37 -64c43 0 67 11 67 11l-10 -68s-28 -13 -69 -13zM32 -217l88 162h102l-138 -162h-52z"/>
   <glyph glyph-name="u" horiz-adv-x="573" unicode="u" d="M203 -11c-125 0 -156 102 -137 212l51 287h80l-52 -293c-11 -67 -7 -136 70 -136c80 0 161 76 175 154l48 275h80l-86 -488h-80l14 76c-29 -41 -93 -87 -163 -87z"/>
   <glyph glyph-name="uacute" horiz-adv-x="573" unicode="ú" d="M288 549l130 141h92l-158 -141h-64zM203 -11c-125 0 -156 102 -137 212l51 287h80l-52 -293c-11 -67 -7 -136 70 -136c80 0 161 76 175 154l48 275h80l-86 -488h-80l14 76c-29 -41 -93 -87 -163 -87z"/>
   <glyph glyph-name="uni01D4" horiz-adv-x="573" unicode="ǔ" d="M331 528l-132 162h75l66 -92l103 92h79zM203 -11c-125 0 -156 102 -137 212l51 287h80l-52 -293c-11 -67 -7 -136 70 -136c80 0 161 76 175 154l48 275h80l-86 -488h-80l14 76c-29 -41 -93 -87 -163 -87z"/>
   <glyph glyph-name="ucircumflex" horiz-adv-x="573" unicode="û" d="M170 536l190 174l133 -174h-75l-68 94l-101 -94h-79zM203 -11c-125 0 -156 102 -137 212l51 287h80l-52 -293c-11 -67 -7 -136 70 -136c80 0 161 76 175 154l48 275h80l-86 -488h-80l14 76c-29 -41 -93 -87 -163 -87z"/>
   <glyph glyph-name="udieresis" horiz-adv-x="573" unicode="ü" d="M217 576l14 84h80l-14 -84h-80zM380 576l14 84h80l-14 -84h-80zM203 -11c-125 0 -156 102 -137 212l51 287h80l-52 -293c-11 -67 -7 -136 70 -136c80 0 161 76 175 154l48 275h80l-86 -488h-80l14 76c-29 -41 -93 -87 -163 -87z"/>
   <glyph glyph-name="uni01D8" horiz-adv-x="573" unicode="ǘ" d="M317 716l130 141h92l-158 -141h-64zM217 576l14 84h80l-14 -84h-80zM380 576l14 84h80l-14 -84h-80zM203 -11c-125 0 -156 102 -137 212l51 287h80l-52 -293c-11 -67 -7 -136 70 -136c80 0 161 76 175 154l48 275h80l-86 -488h-80l14 76c-29 -41 -93 -87 -163 -87z"/>
   <glyph glyph-name="uni01DA" horiz-adv-x="573" unicode="ǚ" d="M360 695l-132 162h75l66 -92l103 92h79zM217 576l14 84h80l-14 -84h-80zM380 576l14 84h80l-14 -84h-80zM203 -11c-125 0 -156 102 -137 212l51 287h80l-52 -293c-11 -67 -7 -136 70 -136c80 0 161 76 175 154l48 275h80l-86 -488h-80l14 76c-29 -41 -93 -87 -163 -87z "/>
   <glyph glyph-name="uni01DC" horiz-adv-x="573" unicode="ǜ" d="M329 716l-98 141h88l80 -141h-70zM217 576l14 84h80l-14 -84h-80zM380 576l14 84h80l-14 -84h-80zM203 -11c-125 0 -156 102 -137 212l51 287h80l-52 -293c-11 -67 -7 -136 70 -136c80 0 161 76 175 154l48 275h80l-86 -488h-80l14 76c-29 -41 -93 -87 -163 -87z"/>
   <glyph glyph-name="uni01D6" horiz-adv-x="573" unicode="ǖ" d="M237 747l11 60h263l-11 -60h-263zM217 576l14 84h80l-14 -84h-80zM380 576l14 84h80l-14 -84h-80zM203 -11c-125 0 -156 102 -137 212l51 287h80l-52 -293c-11 -67 -7 -136 70 -136c80 0 161 76 175 154l48 275h80l-86 -488h-80l14 76c-29 -41 -93 -87 -163 -87z"/>
   <glyph glyph-name="ugrave" horiz-adv-x="573" unicode="ù" d="M300 549l-98 141h88l80 -141h-70zM203 -11c-125 0 -156 102 -137 212l51 287h80l-52 -293c-11 -67 -7 -136 70 -136c80 0 161 76 175 154l48 275h80l-86 -488h-80l14 76c-29 -41 -93 -87 -163 -87z"/>
   <glyph glyph-name="uhungarumlaut" horiz-adv-x="573" unicode="ű" d="M208 549l130 141h92l-158 -141h-64zM368 549l130 141h92l-158 -141h-64zM203 -11c-125 0 -156 102 -137 212l51 287h80l-52 -293c-11 -67 -7 -136 70 -136c80 0 161 76 175 154l48 275h80l-86 -488h-80l14 76c-29 -41 -93 -87 -163 -87z"/>
   <glyph glyph-name="umacron" horiz-adv-x="573" unicode="ū" d="M208 580l11 60h263l-11 -60h-263zM203 -11c-125 0 -156 102 -137 212l51 287h80l-52 -293c-11 -67 -7 -136 70 -136c80 0 161 76 175 154l48 275h80l-86 -488h-80l14 76c-29 -41 -93 -87 -163 -87z"/>
   <glyph glyph-name="uogonek" horiz-adv-x="573" unicode="ų" d="M328 -167c30 0 51 13 69 34l41 -34c-28 -33 -60 -53 -107 -53c-59 0 -95 42 -84 106c12 69 88 102 129 114h-24l14 76c-29 -41 -93 -87 -163 -87c-125 0 -156 102 -137 212l51 287h80l-52 -293c-11 -67 -7 -136 70 -136c80 0 161 76 175 154l48 275h80l-86 -488 s-121 -41 -135 -119c-5 -31 10 -48 31 -48z"/>
   <glyph glyph-name="uring" horiz-adv-x="573" unicode="ů" d="M333 527c-57 0 -93 47 -83 104c9 51 57 91 109 91c55 0 94 -45 84 -103c-9 -51 -58 -92 -110 -92zM334 576c29 0 57 24 62 55c4 24 -10 42 -37 42c-31 0 -56 -22 -62 -54c-4 -26 12 -43 37 -43zM203 -11c-125 0 -156 102 -137 212l51 287h80l-52 -293 c-11 -67 -7 -136 70 -136c80 0 161 76 175 154l48 275h80l-86 -488h-80l14 76c-29 -41 -93 -87 -163 -87z"/>
   <glyph glyph-name="utilde" horiz-adv-x="573" unicode="ũ" d="M416 563c-83 0 -96 77 -149 77c-37 0 -55 -34 -60 -70l-52 6c12 70 50 117 112 117c98 0 101 -79 153 -79c39 0 57 33 65 79l56 -6c-14 -83 -58 -124 -125 -124zM203 -11c-125 0 -156 102 -137 212l51 287h80l-52 -293c-11 -67 -7 -136 70 -136c80 0 161 76 175 154 l48 275h80l-86 -488h-80l14 76c-29 -41 -93 -87 -163 -87z"/>
   <glyph glyph-name="v" horiz-adv-x="468" unicode="v" d="M150 0l-98 488h85l64 -384l201 384h88l-270 -488h-70z"/>
   <glyph glyph-name="w" horiz-adv-x="700" unicode="w" d="M113 0l-53 488h84l29 -379l176 379h72l42 -378l165 378h86l-225 -488h-76l-44 384l-180 -384h-76z"/>
   <glyph glyph-name="wacute" horiz-adv-x="700" unicode="ẃ" d="M351 549l130 141h92l-158 -141h-64zM113 0l-53 488h84l29 -379l176 379h72l42 -378l165 378h86l-225 -488h-76l-44 384l-180 -384h-76z"/>
   <glyph glyph-name="wcircumflex" horiz-adv-x="700" unicode="ŵ" d="M233 536l190 174l133 -174h-75l-68 94l-101 -94h-79zM113 0l-53 488h84l29 -379l176 379h72l42 -378l165 378h86l-225 -488h-76l-44 384l-180 -384h-76z"/>
   <glyph glyph-name="wdieresis" horiz-adv-x="700" unicode="ẅ" d="M280 576l14 84h80l-14 -84h-80zM443 576l14 84h80l-14 -84h-80zM113 0l-53 488h84l29 -379l176 379h72l42 -378l165 378h86l-225 -488h-76l-44 384l-180 -384h-76z"/>
   <glyph glyph-name="wgrave" horiz-adv-x="700" unicode="ẁ" d="M363 549l-98 141h88l80 -141h-70zM113 0l-53 488h84l29 -379l176 379h72l42 -378l165 378h86l-225 -488h-76l-44 384l-180 -384h-76z"/>
   <glyph glyph-name="x" horiz-adv-x="460" unicode="x" d="M-30 0l208 246l-120 242h95l79 -179l145 179h99l-208 -242l120 -246h-95l-79 182l-145 -182h-99z"/>
   <glyph glyph-name="y" horiz-adv-x="487" unicode="y" d="M37 -210l121 215l-101 483h86l70 -390l206 390h90l-387 -698h-85z"/>
   <glyph glyph-name="yacute" horiz-adv-x="487" unicode="ý" d="M245 549l130 141h92l-158 -141h-64zM37 -210l121 215l-101 483h86l70 -390l206 390h90l-387 -698h-85z"/>
   <glyph glyph-name="ycircumflex" horiz-adv-x="487" unicode="ŷ" d="M127 536l190 174l133 -174h-75l-68 94l-101 -94h-79zM37 -210l121 215l-101 483h86l70 -390l206 390h90l-387 -698h-85z"/>
   <glyph glyph-name="ydieresis" horiz-adv-x="487" unicode="ÿ" d="M174 576l14 84h80l-14 -84h-80zM337 576l14 84h80l-14 -84h-80zM37 -210l121 215l-101 483h86l70 -390l206 390h90l-387 -698h-85z"/>
   <glyph glyph-name="ygrave" horiz-adv-x="487" unicode="ỳ" d="M257 549l-98 141h88l80 -141h-70zM37 -210l121 215l-101 483h86l70 -390l206 390h90l-387 -698h-85z"/>
   <glyph glyph-name="uni1EF9" horiz-adv-x="487" unicode="ỹ" d="M373 563c-83 0 -96 77 -149 77c-37 0 -55 -34 -60 -70l-52 6c12 70 50 117 112 117c98 0 101 -79 153 -79c39 0 57 33 65 79l56 -6c-14 -83 -58 -124 -125 -124zM37 -210l121 215l-101 483h86l70 -390l206 390h90l-387 -698h-85z"/>
   <glyph glyph-name="z" horiz-adv-x="456" unicode="z" d="M-17 0l9 59l357 361h-278l12 68h376l-10 -65l-351 -355h287l-12 -68h-390z"/>
   <glyph glyph-name="zacute" horiz-adv-x="456" unicode="ź" d="M229 549l130 141h92l-158 -141h-64zM-17 0l9 59l357 361h-278l12 68h376l-10 -65l-351 -355h287l-12 -68h-390z"/>
   <glyph glyph-name="zcaron" horiz-adv-x="456" unicode="ž" d="M272 528l-132 162h75l66 -92l103 92h79zM-17 0l9 59l357 361h-278l12 68h376l-10 -65l-351 -355h287l-12 -68h-390z"/>
   <glyph glyph-name="zdotaccent" horiz-adv-x="456" unicode="ż" d="M282 575c-37 0 -60 31 -53 69c5 32 34 56 67 56c37 0 62 -30 55 -68c-5 -32 -36 -57 -69 -57zM-17 0l9 59l357 361h-278l12 68h376l-10 -65l-351 -355h287l-12 -68h-390z"/>
   <glyph glyph-name="ordfeminine" horiz-adv-x="391" unicode="ª" d="M171 346c-62 0 -108 42 -96 108c12 70 68 96 141 96l107 2c11 63 -3 103 -64 103c-42 0 -79 -27 -101 -52l-38 32c40 45 83 65 141 65c88 0 128 -57 114 -140l-37 -207h-45l8 56c-38 -45 -77 -63 -130 -63zM184 393c63 0 122 60 131 114l-98 -2c-41 0 -79 -23 -86 -63 c-5 -30 24 -49 53 -49z"/>
   <glyph glyph-name="ordmasculine" horiz-adv-x="419" unicode="º" d="M225 347c-100 0 -154 82 -137 182c17 95 95 171 190 171c100 0 155 -82 137 -182c-16 -94 -95 -171 -190 -171zM225 398c76 0 118 62 130 131c12 64 -5 121 -76 121c-76 0 -118 -62 -131 -132c-11 -64 6 -120 77 -120z"/>
   <glyph glyph-name="pi" horiz-adv-x="462" unicode="π" d="M352 -10c-62 0 -93 58 -83 113l56 315h-141l-74 -418h-70l74 418h-40l12 70h361l-12 -70h-40l-57 -321c-6 -32 4 -49 24 -49c10 0 21 4 32 11l11 -56c-18 -10 -37 -13 -53 -13z"/>
   <glyph glyph-name="zero" horiz-adv-x="586" unicode="0" d="M252 -10c-198 0 -228 205 -200 361c27 151 123 350 311 350c175 0 231 -182 199 -363c-31 -174 -145 -348 -310 -348zM255 67c128 0 200 166 221 284c21 117 8 271 -119 271c-130 0 -204 -160 -225 -283c-21 -116 -8 -272 123 -272z"/>
   <glyph glyph-name="one" horiz-adv-x="382" unicode="1" d="M148 0l92 524h-161l12 68h82c53 0 93 38 102 87l2 11h77l-122 -690h-84z"/>
   <glyph glyph-name="two" horiz-adv-x="558" unicode="2" d="M-15 0l11 74c95 54 199 127 267 191c94 81 156 146 174 244c12 72 -24 116 -95 116c-79 0 -145 -67 -166 -168l-81 13c25 142 122 229 253 229c127 0 195 -81 173 -208c-18 -97 -96 -188 -211 -288c-100 -81 -148 -108 -191 -133l362 2l-13 -72h-483z"/>
   <glyph glyph-name="three" horiz-adv-x="556" unicode="3" d="M218 -10c-131 0 -227 72 -203 211l79 1c-16 -91 47 -138 129 -138s171 49 187 141c15 86 -45 124 -125 124h-52l13 74h48c66 0 120 42 133 115c12 68 -35 107 -99 107c-71 0 -135 -48 -149 -121l-75 14c21 117 120 182 229 182c110 0 193 -69 173 -186 c-10 -57 -46 -111 -105 -144c72 -28 97 -97 85 -178c-24 -136 -141 -202 -268 -202z"/>
   <glyph glyph-name="four" horiz-adv-x="566" unicode="4" d="M294 0l32 182h-319l8 48l408 460h75l-77 -435h110l-13 -73h-110l-32 -182h-82zM121 255h218l55 308z"/>
   <glyph glyph-name="five" horiz-adv-x="561" unicode="5" d="M240 -10c-115 0 -194 89 -198 197l78 18c3 -66 29 -143 125 -143c91 0 166 87 181 170c14 79 -24 151 -116 151c-54 0 -114 -29 -151 -75l-67 32l123 350h347l-13 -74h-283l-74 -208c51 33 99 46 140 46c118 0 201 -105 178 -235c-22 -122 -145 -229 -270 -229z"/>
   <glyph glyph-name="six" horiz-adv-x="572" unicode="6" d="M252 -10c-130 0 -216 106 -193 237c7 42 25 81 52 115l265 348h94l-200 -252c19 4 37 5 54 5c130 0 219 -96 196 -227c-21 -120 -135 -226 -268 -226zM258 66c86 0 167 72 183 161c15 83 -39 149 -120 149c-86 0 -167 -72 -183 -160c-15 -83 39 -150 120 -150z"/>
   <glyph glyph-name="seven" horiz-adv-x="498" unicode="7" d="M46 0l402 616h-359l13 74h458l-7 -42l-413 -648h-94z"/>
   <glyph glyph-name="eight" horiz-adv-x="580" unicode="8" d="M241 -10c-127 0 -226 69 -201 208c14 79 66 142 149 177c-46 30 -68 87 -56 152c19 111 121 173 226 173c109 0 192 -68 172 -185c-11 -59 -48 -112 -109 -146c68 -31 101 -98 86 -183c-24 -134 -143 -196 -267 -196zM308 399c68 0 132 46 145 119c13 70 -33 109 -97 109 c-62 0 -131 -42 -144 -114c-12 -69 27 -114 96 -114zM246 61c82 0 165 49 182 143c15 86 -45 130 -126 130c-86 0 -166 -50 -182 -142c-16 -88 49 -131 126 -131z"/>
   <glyph glyph-name="nine" horiz-adv-x="566" unicode="9" d="M130 0l198 252c-18 -4 -36 -5 -53 -5c-130 0 -220 96 -196 227c21 120 134 226 267 226c130 0 217 -106 194 -237c-8 -42 -26 -81 -53 -115l-264 -348h-93zM277 314c86 0 168 72 184 160c14 83 -39 150 -120 150c-86 0 -168 -72 -183 -161c-15 -83 38 -149 119 -149z"/>
   <glyph glyph-name="fraction" horiz-adv-x="460" unicode="⁄" d="M-45 0l491 690h81l-491 -690h-81z"/>
   <glyph glyph-name="asterisk" horiz-adv-x="380" unicode="*" d="M150 414l-45 35l101 95l-118 18l29 58l104 -47l6 117h61l-37 -117l119 47l9 -58l-124 -18l68 -95l-54 -35l-39 112z"/>
   <glyph glyph-name="backslash" horiz-adv-x="460" unicode="\" d="M289 -210l-203 950h78l203 -950h-78z"/>
   <glyph glyph-name="periodcentered" horiz-adv-x="265" unicode="·" d="M146 338c-37 0 -61 31 -54 69c5 32 35 56 68 56c37 0 61 -30 55 -68c-6 -32 -36 -57 -69 -57z"/>
   <glyph glyph-name="bullet" horiz-adv-x="382" unicode="•" d="M166 119c-66 0 -110 55 -99 122c11 61 70 110 132 110c66 0 110 -55 98 -122c-10 -61 -69 -110 -131 -110z"/>
   <glyph glyph-name="colon" horiz-adv-x="200" unicode=":" d="M65 367l17 99h100l-17 -99h-100zM0 0l17 99h100l-17 -99h-100z"/>
   <glyph glyph-name="comma" horiz-adv-x="225" unicode="," d="M-29 -110l92 239h101l-142 -239h-51z"/>
   <glyph glyph-name="ellipsis" horiz-adv-x="606" unicode="…" d="M1 0l17 99h100l-17 -99h-100zM203 0l17 99h100l-17 -99h-100zM405 0l17 99h100l-17 -99h-100z"/>
   <glyph glyph-name="exclam" horiz-adv-x="268" unicode="!" d="M87 189l77 512h88l-105 -512h-60zM34 0l17 99h100l-17 -99h-100z"/>
   <glyph glyph-name="exclamdown" horiz-adv-x="268" unicode="¡" d="M110 389l18 99h100l-18 -99h-100zM10 -213l104 512h60l-76 -512h-88z"/>
   <glyph glyph-name="numbersign" horiz-adv-x="722" unicode="#" d="M100 0l82 213h-117l10 58h129l60 158h-121l10 58h133l83 213h63l-83 -213h152l82 213h63l-82 -213h117l-10 -58h-129l-60 -158h121l-10 -58h-133l-83 -213h-63l83 213h-152l-82 -213h-63zM267 271h152l60 158h-152z"/>
   <glyph glyph-name="period" horiz-adv-x="202" unicode="." d="M1 0l17 99h100l-17 -99h-100z"/>
   <glyph glyph-name="question" horiz-adv-x="504" unicode="?" d="M200 187l19 109c26 144 180 94 204 231c13 73 -36 104 -105 104c-73 0 -138 -44 -153 -120l-74 6c22 116 119 182 226 183c114 0 199 -65 178 -185c-29 -165 -190 -135 -206 -225l-18 -103h-71zM154 0l17 99h100l-17 -99h-100z"/>
   <glyph glyph-name="questiondown" horiz-adv-x="504" unicode="¿" d="M220 389l17 99h100l-17 -99h-100zM174 -212c-114 0 -199 65 -177 185c29 165 189 135 205 225l18 103h71l-19 -109c-25 -144 -179 -94 -203 -231c-13 -73 35 -104 104 -104c73 0 139 44 153 120l74 -6c-21 -116 -119 -182 -226 -183z"/>
   <glyph glyph-name="quotedbl" horiz-adv-x="346" unicode='&quot;' d="M96 473l39 217h70l-39 -217h-70zM246 473l39 217h70l-39 -217h-70z"/>
   <glyph glyph-name="quotesingle" horiz-adv-x="170" unicode="&apos;" d="M86 487l38 217h70l-38 -217h-70z"/>
   <glyph glyph-name="semicolon" horiz-adv-x="240" unicode=";" d="M105 367l17 99h100l-17 -99h-100zM-79 -110l92 239h101l-142 -239h-51z"/>
   <glyph glyph-name="slash" horiz-adv-x="460" unicode="/" d="M-82 -210l536 950h81l-536 -950h-81z"/>
   <glyph glyph-name="twodotenleader" horiz-adv-x="404" unicode="‥" d="M1 0l17 99h100l-17 -99h-100zM203 0l17 99h100l-17 -99h-100z"/>
   <glyph glyph-name="underscore" horiz-adv-x="485" unicode="_" d="M-11 -60l11 60h385l-11 -60h-385z"/>
   <glyph glyph-name="braceleft" horiz-adv-x="380" unicode="{" d="M146 -250c-38 0 -59 24 -69 53c-9 15 -10 45 -2 88l40 226c7 40 -22 62 -49 74l8 68c45 16 74 50 83 99l47 264c14 82 47 128 125 128h25c9 0 17 -1 26 -1l-5 -49c-12 2 -23 3 -31 3c-36 0 -58 -17 -63 -45l-55 -313c-11 -60 -43 -95 -108 -128c46 -22 76 -53 67 -104 l-40 -225c-11 -62 3 -91 43 -91c8 0 17 2 25 4l-5 -50c-9 -1 -18 -1 -26 -1h-36z"/>
   <glyph glyph-name="braceright" horiz-adv-x="380" unicode="}" d="M15 -250c-9 0 -18 1 -27 1l5 48c7 -1 14 -2 19 -2c44 0 73 34 84 97l40 225c9 53 48 79 103 104c-52 31 -72 70 -62 128l55 313c5 28 -8 39 -39 39c-12 0 -24 -2 -38 -5l5 51c9 1 17 1 25 1h26c78 0 98 -52 84 -134l-47 -264c-8 -48 5 -79 45 -95l-8 -68 c-31 -12 -72 -37 -79 -78l-40 -226c-8 -42 -17 -72 -30 -91c-22 -25 -47 -44 -86 -44h-35z"/>
   <glyph glyph-name="bracketleft" horiz-adv-x="352" unicode="[" d="M10 -213l170 963h181l-8 -49h-115l-153 -864h115l-9 -50h-181z"/>
   <glyph glyph-name="bracketright" horiz-adv-x="352" unicode="]" d="M-15 -213l9 50h115l153 864h-115l8 49h181l-170 -963h-181z"/>
   <glyph glyph-name="parenleft" horiz-adv-x="308" unicode="(" d="M89 -222c-55 107 -59 334 -32 491c29 164 99 354 201 483l69 -4c-103 -135 -178 -321 -208 -492c-29 -164 -23 -345 33 -482z"/>
   <glyph glyph-name="parenright" horiz-adv-x="308" unicode=")" d="M-25 -222c103 135 176 321 206 490c30 167 19 353 -33 484l65 -4c55 -128 61 -319 30 -490c-27 -155 -108 -377 -201 -484z"/>
   <glyph glyph-name="emdash" horiz-adv-x="655" unicode="—" d="M-6 278l11 60h665l-11 -60h-665z"/>
   <glyph glyph-name="endash" horiz-adv-x="415" unicode="–" d="M34 278l11 60h345l-11 -60h-345z"/>
   <glyph glyph-name="hyphen" horiz-adv-x="435" unicode="-" d="M93 298l10 60h255l-10 -60h-255z"/>
   <glyph glyph-name="uni00AD" horiz-adv-x="415" unicode="­" d="M44 278l11 60h325l-11 -60h-325z"/>
   <glyph glyph-name="uni2015" horiz-adv-x="655" unicode="―" d="M34 278l11 60h585l-11 -60h-585z"/>
   <glyph glyph-name="guillemotleft" horiz-adv-x="501" unicode="«" d="M221 88l-157 161l211 162l-12 -82l-109 -80l79 -79zM398 88l-157 161l211 162l-12 -82l-109 -80l79 -79z"/>
   <glyph glyph-name="guillemotright" horiz-adv-x="501" unicode="»" d="M37 88l12 82l109 79l-79 80l12 82l157 -162zM214 88l12 82l109 79l-79 80l12 82l157 -162z"/>
   <glyph glyph-name="guilsinglleft" horiz-adv-x="324" unicode="‹" d="M221 88l-157 161l211 162l-12 -82l-109 -80l79 -79z"/>
   <glyph glyph-name="guilsinglright" horiz-adv-x="324" unicode="›" d="M37 88l12 82l109 79l-79 80l12 82l157 -162z"/>
   <glyph glyph-name="quotedblbase" horiz-adv-x="350" unicode="„" d="M-24 -110l102 239h101l-152 -239h-51zM126 -110l102 239h101l-152 -239h-51z"/>
   <glyph glyph-name="quotedblleft" horiz-adv-x="378" unicode="“" d="M175 448l-67 242h99l17 -242h-49zM325 448l-67 242h99l17 -242h-49z"/>
   <glyph glyph-name="quotedblright" horiz-adv-x="350" unicode="”" d="M74 448l103 242h101l-153 -242h-51zM224 448l103 242h101l-153 -242h-51z"/>
   <glyph glyph-name="quoteleft" horiz-adv-x="198" unicode="‘" d="M135 448l-67 242h99l17 -242h-49z"/>
   <glyph glyph-name="quoteright" horiz-adv-x="200" unicode="’" d="M74 448l103 242h101l-153 -242h-51z"/>
   <glyph glyph-name="quotesinglbase" horiz-adv-x="200" unicode="‚" d="M-24 -110l102 239h101l-152 -239h-51z"/>
   <glyph glyph-name="space" horiz-adv-x="275" unicode=" "/>
   <glyph glyph-name="uni00A0" horiz-adv-x="275" unicode=" "/>
   <glyph glyph-name="Euro" horiz-adv-x="565" unicode="€" d="M293 -10c-140 0 -202 104 -205 241l-71 -3l43 71l30 3l7 49c2 14 7 32 11 49l-61 -3l43 71l40 3c52 133 146 230 280 230c77 0 135 -35 170 -98l-64 -44c-24 40 -66 55 -114 55c-90 0 -155 -63 -194 -149l259 3l-43 -71l-241 -3c-4 -15 -8 -31 -11 -50 c-3 -14 -5 -31 -7 -48l272 3l-43 -71l-229 -3c7 -89 49 -148 136 -148c52 0 97 19 134 61l48 -63c-55 -57 -120 -85 -190 -85z"/>
   <glyph glyph-name="cent" horiz-adv-x="492" unicode="¢" d="M168 -100l19 92c-122 16 -164 131 -142 257c21 119 98 230 226 246l18 91h58l-18 -92c74 -9 125 -58 143 -131l-78 -25c-6 56 -44 86 -99 86c-101 0 -156 -98 -171 -187c-15 -84 1 -175 99 -175c59 0 111 37 136 92l66 -35c-39 -75 -103 -119 -181 -128l-18 -91h-58z"/>
   <glyph glyph-name="currency" horiz-adv-x="554" unicode="¤" d="M91 34l-73 73l96 85c-22 32 -35 72 -35 115s13 83 35 115l-103 78l73 73l78 -102c32 24 71 38 115 38s83 -14 115 -38l85 95l73 -73l-110 -71c22 -32 35 -72 35 -115s-13 -83 -35 -115l110 -85l-73 -73l-85 109c-32 -24 -71 -38 -115 -38s-83 14 -115 38zM277 181 c71 0 118 52 118 126s-47 126 -118 126s-118 -52 -118 -126s47 -126 118 -126z"/>
   <glyph glyph-name="dollar" horiz-adv-x="536" unicode="$" d="M169 -120l22 114c-98 12 -176 78 -174 189l83 16c-6 -90 56 -130 136 -130c82 0 146 41 161 125c29 165 -310 122 -273 335c17 94 96 156 187 169l22 112h58l-22 -111c70 -7 124 -42 150 -111l-70 -38c-19 53 -62 77 -112 77c-59 0 -120 -41 -131 -103 c-27 -157 313 -112 273 -337c-20 -114 -116 -188 -230 -194l-22 -113h-58z"/>
   <glyph glyph-name="florin" horiz-adv-x="337" unicode="ƒ" d="M-139 -223l8 70c116 0 175 47 195 156l73 416h-87l12 69h87l14 79c15 84 83 140 153 140c36 0 69 -14 96 -40l-52 -50c-16 16 -34 20 -49 20c-34 0 -70 -25 -79 -76l-13 -73h149l-12 -69h-149l-75 -422c-25 -147 -127 -220 -271 -220z"/>
   <glyph glyph-name="sterling" horiz-adv-x="527" unicode="£" d="M-38 0l10 55s135 94 150 177c6 34 2 81 2 81l-106 -3l11 65h91s-14 62 -2 127c18 106 101 198 223 198c92 0 146 -66 160 -143l-62 -16c-11 57 -46 94 -101 94c-83 0 -143 -61 -158 -145c-9 -56 4 -118 4 -118l231 3l-11 -65h-216s3 -47 -4 -89 c-17 -95 -110 -158 -110 -158l401 2l-11 -65h-502z"/>
   <glyph glyph-name="yen" horiz-adv-x="622" unicode="¥" d="M220 0l15 83h-147l13 71h146l17 98h-146l12 71h114l-166 367h96l147 -336l269 336h100l-297 -367h112l-12 -71h-147l-17 -98h147l-13 -71h-146l-15 -83h-82z"/>
   <glyph glyph-name="uni2206" horiz-adv-x="578" unicode="∆" d="M18 0l271 701l272 -701h-543zM122 70h335l-168 442z"/>
   <glyph glyph-name="uni2126" horiz-adv-x="746" unicode="Ω" d="M50 0v69h164c-99 58 -162 167 -162 281c0 86 33 175 84 230c59 65 151 107 237 107s178 -42 237 -107c51 -55 84 -144 84 -230c0 -117 -59 -226 -152 -281h154v-69h-253v69c108 31 177 145 177 292c0 64 -23 129 -59 169c-47 53 -121 87 -188 87s-141 -34 -188 -87 c-36 -40 -59 -105 -59 -169c0 -137 69 -250 177 -292v-69h-253z"/>
   <glyph glyph-name="approxequal" horiz-adv-x="466" unicode="≈" d="M310 358c-81 0 -108 80 -163 80c-36 0 -45 -31 -44 -67h-53c0 70 32 120 96 120c96 0 113 -79 167 -79c37 0 47 30 47 76h57c0 -83 -38 -130 -107 -130zM310 190c-81 0 -108 80 -163 80c-36 0 -45 -31 -44 -67h-53c0 70 32 120 96 120c96 0 113 -79 167 -79 c37 0 47 30 47 76h57c0 -83 -38 -130 -107 -130z"/>
   <glyph glyph-name="asciitilde" horiz-adv-x="466" unicode="~" d="M310 185c-81 0 -108 80 -163 80c-36 0 -45 -31 -44 -67h-53c0 70 32 120 96 120c96 0 113 -78 167 -78c37 0 47 29 47 75h57c0 -83 -38 -130 -107 -130z"/>
   <glyph glyph-name="divide" horiz-adv-x="506" unicode="÷" d="M203 367v99h100v-99h-100zM70 207v60h366v-60h-366zM203 0v99h100v-99h-100z"/>
   <glyph glyph-name="equal" horiz-adv-x="535" unicode="=" d="M80 377v71h375v-71h-375zM80 208v71h375v-71h-375z"/>
   <glyph glyph-name="greater" horiz-adv-x="603" unicode="&gt;" d="M100 82l-35 60l349 187l-349 187l35 60l444 -247z"/>
   <glyph glyph-name="greaterequal" horiz-adv-x="659" unicode="≥" d="M114 61l-35 60l348 187l-348 187l35 60l444 -247zM70 -60v60h519v-60h-519z"/>
   <glyph glyph-name="infinity" horiz-adv-x="880" unicode="∞" d="M242 173c-113 0 -179 75 -179 186s66 186 179 186c73 0 145 -42 198 -114c53 72 125 114 198 114c113 0 179 -75 179 -186s-66 -186 -179 -186c-73 0 -145 42 -198 114c-53 -72 -125 -114 -198 -114zM257 239c53 0 111 47 147 120c-36 72 -95 120 -147 120 c-71 0 -118 -44 -118 -120s47 -120 118 -120zM623 239c71 0 118 44 118 120s-47 120 -118 120c-53 0 -111 -47 -147 -120c36 -72 95 -120 147 -120z"/>
   <glyph glyph-name="integral" horiz-adv-x="337" unicode="∫" d="M-52 -223v70c116 0 165 44 165 153v564c0 84 60 143 132 143c35 0 70 -13 100 -38l-46 -54c-18 16 -37 22 -54 22c-32 0 -62 -23 -62 -73v-564c0 -147 -91 -223 -235 -223z"/>
   <glyph glyph-name="less" horiz-adv-x="603" unicode="&lt;" d="M503 82l-444 247l444 247l35 -60l-349 -187l349 -187z"/>
   <glyph glyph-name="lessequal" horiz-adv-x="659" unicode="≤" d="M545 61l-444 247l444 247l35 -60l-348 -187l348 -187zM70 -60v60h519v-60h-519z"/>
   <glyph glyph-name="logicalnot" horiz-adv-x="581" unicode="¬" d="M428 142v176h-359v71h433v-247h-74z"/>
   <glyph glyph-name="uni00B5" horiz-adv-x="563" unicode="µ" d="M75 -130v618h81v-290c0 -67 19 -136 98 -136c78 0 143 70 143 148v278h81v-488h-81v78c-22 -41 -79 -89 -151 -89c-36 0 -66 9 -90 24l-10 -143h-71z"/>
   <glyph glyph-name="multiply" horiz-adv-x="616" unicode="×" d="M150 105l-42 42l158 158l-158 158l42 42l158 -158l158 158l42 -42l-158 -158l158 -158l-42 -42l-158 158z"/>
   <glyph glyph-name="notequal" horiz-adv-x="535" unicode="≠" d="M47 0l111 208h-78v71h116l53 98h-169v71h207l129 242h80l-130 -242h89v-71h-127l-53 -98h180v-71h-218l-111 -208h-79z"/>
   <glyph glyph-name="partialdiff" horiz-adv-x="601" unicode="∂" d="M207 -6c-123 0 -192 92 -169 223c30 163 164 292 329 292c53 0 94 -21 117 -54c11 117 -32 172 -113 172c-55 0 -100 -20 -136 -79l-75 25c46 81 124 125 218 125c162 0 208 -131 170 -347c-30 -173 -141 -357 -341 -357zM217 66c121 0 212 111 234 236 c16 83 -15 137 -97 137c-121 0 -217 -122 -237 -236c-13 -80 21 -137 100 -137z"/>
   <glyph glyph-name="percent" horiz-adv-x="746" unicode="%" d="M197 390c-97 0 -111 95 -100 161c11 61 53 150 143 150c87 0 113 -84 99 -162c-12 -71 -62 -149 -142 -149zM100 0l492 690h71l-492 -690h-71zM196 444c47 0 79 58 87 107c8 45 0 95 -44 95c-48 0 -79 -55 -88 -106c-8 -45 0 -96 45 -96zM532 0c-97 0 -111 95 -100 161 c11 61 53 150 144 150c86 0 112 -84 98 -162c-12 -71 -62 -149 -142 -149zM532 54c47 0 78 58 86 107c8 45 0 95 -44 95c-48 0 -79 -55 -88 -106c-7 -45 1 -96 46 -96z"/>
   <glyph glyph-name="perthousand" horiz-adv-x="1031" unicode="‰" d="M197 390c-97 0 -111 95 -100 161c11 61 53 150 143 150c87 0 113 -84 99 -162c-12 -71 -62 -149 -142 -149zM100 0l492 690h71l-492 -690h-71zM196 444c47 0 79 58 87 107c8 45 0 95 -44 95c-48 0 -79 -55 -88 -106c-8 -45 0 -96 45 -96zM532 0c-97 0 -111 95 -100 161 c11 61 53 150 144 150c86 0 112 -84 98 -162c-12 -71 -62 -149 -142 -149zM824 0c-97 0 -111 95 -100 161c11 61 53 150 143 150c87 0 113 -84 99 -162c-12 -71 -62 -149 -142 -149zM532 54c47 0 78 58 86 107c8 45 0 95 -44 95c-48 0 -79 -55 -88 -106c-7 -45 1 -96 46 -96 zM824 54c47 0 78 58 86 107c8 45 0 95 -44 95c-48 0 -79 -55 -88 -106c-7 -45 1 -96 46 -96z"/>
   <glyph glyph-name="plus" horiz-adv-x="616" unicode="+" d="M278 52v223h-223v60h223v223h60v-223h223v-60h-223v-223h-60z"/>
   <glyph glyph-name="plusminus" horiz-adv-x="616" unicode="±" d="M278 52v223h-223v60h223v223h60v-223h223v-60h-223v-223h-60zM56 -60v60h505v-60h-505z"/>
   <glyph glyph-name="product" horiz-adv-x="576" unicode="∏" d="M90 0v620h-40v70h476v-70h-40v-620h-70v620h-256v-620h-70z"/>
   <glyph glyph-name="radical" horiz-adv-x="580" unicode="√" d="M245 -90l-127 369h-73v70h123l81 -255l225 599l66 -26z"/>
   <glyph glyph-name="summation" horiz-adv-x="582" unicode="∑" d="M24 0v34l283 311l-283 311v34h498v-70h-370l255 -275l-255 -275h370v-70h-498z"/>
   <glyph glyph-name="lozenge" horiz-adv-x="578" unicode="◊" d="M248 0l-180 350l180 350h82l180 -350l-180 -350h-82zM289 78l137 272l-137 272l-137 -272z"/>
   <glyph glyph-name="bar" horiz-adv-x="254" unicode="|" d="M4 -250l176 999h58l-176 -999h-58z"/>
   <glyph glyph-name="brokenbar" horiz-adv-x="254" unicode="¦" d="M111 357l64 363h58l-64 -363h-58zM22 -150l62 355h58l-62 -355h-58z"/>
   <glyph glyph-name="at" horiz-adv-x="978" unicode="@" d="M493 -170c-240 0 -434 196 -434 435s195 434 434 434c240 0 434 -195 434 -435c0 -137 -65 -291 -224 -291c-77 0 -127 54 -119 131c-38 -46 -96 -73 -155 -73c-103 0 -153 88 -153 182c0 132 81 295 231 295c56 0 112 -33 127 -89l13 65h76c-24 -124 -72 -256 -72 -382 c0 -34 23 -52 55 -52c111 0 148 126 148 217c0 198 -163 361 -361 361s-361 -163 -361 -361s163 -361 361 -361c40 0 79 7 117 19l27 -70c-46 -16 -95 -25 -144 -25zM438 106c113 0 170 126 170 224c0 60 -28 103 -92 103c-113 0 -170 -125 -170 -223c0 -60 28 -104 92 -104 z"/>
   <glyph glyph-name="ampersand" horiz-adv-x="601" unicode="&amp;" d="M510 -28l-78 110c-77 -70 -150 -92 -232 -92c-110 0 -194 53 -173 174c22 118 208 207 209 205c2 2 -79 89 -63 182c18 93 105 147 193 147c89 0 150 -67 134 -158c-16 -97 -165 -179 -166 -179l107 -158c32 44 59 138 59 138l72 -10s-35 -120 -91 -190l88 -124zM299 412 c0 -2 125 65 138 139c9 47 -28 79 -73 79c-54 0 -112 -31 -123 -91c-9 -58 55 -129 58 -127zM207 60c71 0 133 27 187 78l-128 181s-157 -84 -171 -166c-12 -73 46 -93 112 -93z"/>
   <glyph glyph-name="paragraph" horiz-adv-x="605" unicode="¶" d="M210 0l56 304c-114 0 -210 74 -188 199c21 119 138 187 252 187h85l-122 -690h-83zM381 0l122 690h84l-122 -690h-84z"/>
   <glyph glyph-name="copyright" horiz-adv-x="839" unicode="©" d="M420 -24c-204 0 -370 165 -370 369s166 369 370 369s369 -165 369 -369s-165 -369 -369 -369zM420 38c166 0 307 141 307 307s-141 307 -307 307c-167 0 -307 -141 -307 -307s140 -307 307 -307zM428 144c-117 0 -175 91 -175 200s58 200 175 200c69 0 124 -35 153 -96 l-57 -25c-19 39 -53 58 -96 58c-80 0 -114 -65 -114 -137s33 -136 113 -136c43 0 77 19 96 58l58 -25c-29 -62 -84 -97 -153 -97z"/>
   <glyph glyph-name="registered" horiz-adv-x="839" unicode="®" d="M420 -23c-204 0 -370 165 -370 369s166 369 370 369s369 -165 369 -369s-165 -369 -369 -369zM420 35c169 0 311 141 311 311s-142 311 -311 311c-170 0 -312 -141 -312 -311s142 -311 312 -311zM297 147v390h149c87 0 129 -42 129 -114c0 -66 -37 -98 -79 -107l98 -169 h-73l-87 162h-73v-162h-64zM355 367h91c48 0 71 18 71 56c0 40 -22 56 -71 56h-91v-112z"/>
   <glyph glyph-name="section" horiz-adv-x="428" unicode="§" d="M175 -9c-99 0 -167 49 -180 144l68 15c9 -67 52 -90 117 -90c56 0 121 17 133 86c19 109 -289 21 -254 216c6 37 30 74 67 101c-26 21 -38 57 -31 98c16 91 107 139 191 139c88 0 151 -49 162 -133l-69 -12c-6 55 -44 76 -98 76c-52 0 -109 -27 -120 -87 c-18 -103 289 -16 254 -215c-6 -36 -27 -73 -64 -101c25 -21 36 -57 29 -98c-18 -101 -116 -139 -205 -139zM277 262c43 17 64 46 71 84c13 71 -99 77 -148 89c-39 -15 -66 -46 -73 -85c-12 -67 104 -75 150 -88z"/>
   <glyph glyph-name="trademark" horiz-adv-x="477" unicode="™" d="M112 428l40 224h-71l7 38h186l-7 -38h-71l-40 -224h-44zM259 428l47 262h47l36 -170l96 170h48l-47 -262h-44l33 181l-75 -141h-36l-27 142l-34 -182h-44z"/>
   <glyph glyph-name="degree" horiz-adv-x="406" unicode="°" d="M230 414c-81 0 -135 67 -121 149c14 76 86 137 163 137c81 0 136 -67 121 -149c-13 -76 -86 -137 -163 -137zM231 464c53 0 105 45 114 99c9 48 -24 87 -73 87c-53 0 -105 -45 -115 -99c-8 -48 25 -87 74 -87z"/>
   <glyph glyph-name="asciicircum" horiz-adv-x="578" unicode="^" d="M129 408l233 294l130 -294h-81l-70 161l-128 -161h-84z"/>
   <glyph glyph-name="dagger" horiz-adv-x="394" unicode="†" d="M90 -100l90 510h-108l14 78h108l36 202h78l-36 -202h108l-14 -78h-108l-90 -510h-78z"/>
   <glyph glyph-name="daggerdbl" horiz-adv-x="394" unicode="‡" d="M90 -100l36 202h-108l14 78h108l40 230h-108l14 78h108l36 202h78l-36 -202h108l-14 -78h-108l-40 -230h108l-14 -78h-108l-36 -202h-78z"/>
   <glyph glyph-name="uni02F5" horiz-adv-x="365" unicode="˵" d="M135 347l-98 141h98l80 -141h-80zM295 347l-98 141h98l80 -141h-80z"/>
   <glyph glyph-name="uni02F6" horiz-adv-x="365" unicode="˶" d="M10 347l130 141h102l-148 -141h-84zM170 347l130 141h102l-148 -141h-84z"/>
   <glyph glyph-name="uni0308" horiz-adv-x="0" unicode="̈" d="M-211 576l14 84h80l-14 -84h-80zM-48 576l14 84h80l-14 -84h-80z"/>
   <glyph glyph-name="uni0307" horiz-adv-x="0" unicode="̇" d="M-8 575c-37 0 -60 31 -53 69c5 32 34 56 67 56c37 0 62 -30 55 -68c-5 -32 -36 -57 -69 -57z"/>
   <glyph glyph-name="gravecomb" horiz-adv-x="0" unicode="̀" d="M-29 549l-98 141h88l80 -141h-70z"/>
   <glyph glyph-name="acutecomb" horiz-adv-x="0" unicode="́" d="M-144 549l130 141h92l-158 -141h-64z"/>
   <glyph glyph-name="uni030B" horiz-adv-x="0" unicode="̋" d="M-319 549l130 141h92l-158 -141h-64zM-159 549l130 141h92l-158 -141h-64z"/>
   <glyph glyph-name="uni0302" horiz-adv-x="0" unicode="̂" d="M-278 536l190 174l133 -174h-75l-68 94l-101 -94h-79z"/>
   <glyph glyph-name="uni030C" horiz-adv-x="0" unicode="̌" d="M-117 528l-132 162h75l66 -92l103 92h79z"/>
   <glyph glyph-name="uni0306" horiz-adv-x="0" unicode="̆" d="M-97 558c-87 0 -144 49 -129 135l63 -6c-8 -46 23 -75 68 -75c49 0 95 34 103 81l63 -6c-15 -85 -85 -129 -168 -129z"/>
   <glyph glyph-name="uni030A" horiz-adv-x="0" unicode="̊" d="M-51 527c-57 0 -93 47 -83 104c9 51 57 91 109 91c55 0 94 -45 84 -103c-9 -51 -58 -92 -110 -92zM-50 576c29 0 57 24 62 55c4 24 -10 42 -37 42c-31 0 -56 -22 -62 -54c-4 -26 12 -43 37 -43z"/>
   <glyph glyph-name="tildecomb" horiz-adv-x="0" unicode="̃" d="M-53 563c-83 0 -96 77 -149 77c-37 0 -55 -34 -60 -70l-52 6c12 70 50 117 112 117c98 0 101 -79 153 -79c39 0 57 33 65 79l56 -6c-14 -83 -58 -124 -125 -124z"/>
   <glyph glyph-name="uni0304" horiz-adv-x="0" unicode="̄" d="M-241 580l11 60h263l-11 -60h-263z"/>
   <glyph glyph-name="uni030F" horiz-adv-x="0" unicode="̏" d="M-194 549l-98 141h98l80 -141h-80zM-35 549l-97 141h98l80 -141h-81z"/>
   <glyph glyph-name="uni0312" horiz-adv-x="0" unicode="̒" d="M-136 694l-88 -145h-102l138 145h52z"/>
   <glyph glyph-name="uni031B" horiz-adv-x="0" unicode="̛" d="M-105 488l96 202h102l-146 -202h-52z"/>
   <glyph glyph-name="uni0326" horiz-adv-x="0" unicode="̦" d="M-247 -217l88 162h102l-138 -162h-52z"/>
   <glyph glyph-name="uni0327" horiz-adv-x="0" unicode="̧" d="M-184 -244c-45 0 -74 30 -81 64l48 18c1 -17 13 -31 33 -31c24 0 52 21 57 49c3 19 -12 30 -35 38l-59 18l63 88h59l-56 -64c59 -17 86 -45 78 -88c-9 -53 -60 -92 -107 -92z"/>
   <glyph glyph-name="uni0328" horiz-adv-x="0" unicode="̨" d="M-184 -220c-59 0 -95 42 -84 106c12 71 93 104 132 115l53 -1s-121 -41 -135 -119c-5 -31 10 -48 31 -48c30 0 51 13 69 34l41 -34c-28 -33 -60 -53 -107 -53z"/>
   <glyph glyph-name="HankenDesign" d="M453 -30c-209 0 -378 169 -378 378s169 378 378 378s378 -169 378 -378s-169 -378 -378 -378zM453 5c190 0 343 153 343 343s-153 343 -343 343s-343 -153 -343 -343s153 -343 343 -343zM256 200c-9 0 -17 7 -17 17v262c0 10 8 18 17 18c10 0 18 -8 18 -18v-262 c0 -10 -8 -17 -18 -17zM453 200c-10 0 -17 7 -17 17v262c0 10 7 18 17 18s17 -8 17 -18v-262c0 -10 -7 -17 -17 -17zM649 200c-4 0 -8 1 -11 5l-132 131c-3 4 -4 8 -4 12c0 5 1 9 4 12l132 131c3 4 7 6 11 6c9 0 18 -9 18 -18c0 -4 -1 -8 -5 -12l-119 -119l119 -119 c4 -4 5 -8 5 -12c0 -9 -9 -17 -18 -17zM322 331c-10 0 -17 7 -17 17s7 17 17 17h65c10 0 18 -7 18 -17s-8 -17 -18 -17h-65z" horiz-adv-x="906"/>
   </font>
</defs>
</svg>
